<?xml version="1.0" encoding="UTF-8" standalone="no"?>
<!-- Created with Inkscape (http://www.inkscape.org/) -->

<svg
   width="210mm"
   height="297mm"
   viewBox="0 0 210 297"
   version="1.1"
   id="svg1"
   xml:space="preserve"
   inkscape:version="1.4 (e7c3feb100, 2024-10-09)"
   sodipodi:docname="drawing.svg"
   xmlns:inkscape="http://www.inkscape.org/namespaces/inkscape"
   xmlns:sodipodi="http://sodipodi.sourceforge.net/DTD/sodipodi-0.dtd"
   xmlns:xlink="http://www.w3.org/1999/xlink"
   xmlns="http://www.w3.org/2000/svg"
   xmlns:svg="http://www.w3.org/2000/svg"><sodipodi:namedview
     id="namedview1"
     pagecolor="#ffffff"
     bordercolor="#000000"
     borderopacity="0.25"
     inkscape:showpageshadow="2"
     inkscape:pageopacity="0.0"
     inkscape:pagecheckerboard="0"
     inkscape:deskcolor="#d1d1d1"
     inkscape:document-units="mm"
     inkscape:zoom="0.50976222"
     inkscape:cx="1770.4333"
     inkscape:cy="1709.6206"
     inkscape:window-width="1342"
     inkscape:window-height="724"
     inkscape:window-x="12"
     inkscape:window-y="32"
     inkscape:window-maximized="1"
     inkscape:current-layer="layer1" /><defs
     id="defs1"><linearGradient
       id="gradient_belly_shadow"><stop
         offset="0"
         stop-color="#000000"
         id="stop1" /><stop
         offset="1"
         stop-color="#000000"
         stop-opacity="0.25"
         id="stop2" /></linearGradient><linearGradient
       id="gradient_wing_tip_right_shadow"><stop
         offset="0"
         stop-color="#110800"
         id="stop3" /><stop
         offset="0.59"
         stop-color="#a65a00"
         stop-opacity="0.8"
         id="stop4" /><stop
         offset="1"
         stop-color="#ff921e"
         stop-opacity="0"
         id="stop5" /></linearGradient><linearGradient
       id="gradient_wing_tip_right_glare_1"><stop
         offset="0"
         stop-color="#7c7c7c"
         id="stop6" /><stop
         offset="1"
         stop-color="#7c7c7c"
         stop-opacity="0.33"
         id="stop7" /></linearGradient><linearGradient
       id="gradient_foot_left_layer_1"><stop
         offset="0"
         stop-color="#b98309"
         id="stop10" /><stop
         offset="1"
         stop-color="#382605"
         id="stop11" /></linearGradient><linearGradient
       id="gradient_foot_left_glare"><stop
         offset="0"
         stop-color="#ebc40c"
         id="stop12" /><stop
         offset="1"
         stop-color="#ebc40c"
         stop-opacity="0"
         id="stop13" /></linearGradient><linearGradient
       id="gradient_foot_right_shadow"><stop
         offset="0"
         stop-color="#000000"
         id="stop14" /><stop
         offset="1"
         stop-color="#000000"
         stop-opacity="0"
         id="stop15" /></linearGradient><linearGradient
       id="gradient_foot_right_layer_1"><stop
         offset="0"
         stop-color="#3e2a06"
         id="stop16" /><stop
         offset="1"
         stop-color="#ad780a"
         id="stop17" /></linearGradient><linearGradient
       id="gradient_foot_right_glare"><stop
         offset="0"
         stop-color="#f3cd0c"
         id="stop18" /><stop
         offset="1"
         stop-color="#f3cd0c"
         stop-opacity="0"
         id="stop19" /></linearGradient><linearGradient
       id="gradient_eyeball"><stop
         offset="0"
         stop-color="#fefefc"
         id="stop20" /><stop
         offset="0.75"
         stop-color="#fefefc"
         id="stop21" /><stop
         offset="1"
         stop-color="#d4d4d4"
         id="stop22" /></linearGradient><linearGradient
       id="gradient_pupil_left_glare"><stop
         offset="0"
         stop-color="#757574"
         stop-opacity="0"
         id="stop23" /><stop
         offset="0.25"
         stop-color="#757574"
         id="stop24" /><stop
         offset="0.5"
         stop-color="#757574"
         id="stop25" /><stop
         offset="1"
         stop-color="#757574"
         stop-opacity="0"
         id="stop26" /></linearGradient><linearGradient
       id="gradient_pupil_right_glare_2"><stop
         offset="0"
         stop-color="#949494"
         stop-opacity="0.39"
         id="stop27" /><stop
         offset="0.5"
         stop-color="#949494"
         id="stop28" /><stop
         offset="1"
         stop-color="#949494"
         stop-opacity="0.39"
         id="stop29" /></linearGradient><linearGradient
       id="gradient_eyelid_left"><stop
         offset="0"
         stop-color="#c8c8c8"
         id="stop30" /><stop
         offset="1"
         stop-color="#797978"
         id="stop31" /></linearGradient><linearGradient
       id="gradient_eyelid_right"><stop
         offset="0"
         stop-color="#747474"
         id="stop32" /><stop
         offset="0.13"
         stop-color="#8c8c8c"
         id="stop33" /><stop
         offset="0.25"
         stop-color="#a4a4a4"
         id="stop34" /><stop
         offset="0.5"
         stop-color="#d4d4d4"
         id="stop35" /><stop
         offset="0.62"
         stop-color="#d4d4d4"
         id="stop36" /><stop
         offset="1"
         stop-color="#7c7c7c"
         id="stop37" /></linearGradient><linearGradient
       id="gradient_eyebrow"><stop
         offset="0"
         stop-color="#646464"
         stop-opacity="0"
         id="stop38" /><stop
         offset="0.31"
         stop-color="#646464"
         stop-opacity="0.58"
         id="stop39" /><stop
         offset="0.47"
         stop-color="#646464"
         id="stop40" /><stop
         offset="0.73"
         stop-color="#646464"
         stop-opacity="0.26"
         id="stop41" /><stop
         offset="1"
         stop-color="#646464"
         stop-opacity="0"
         id="stop42" /></linearGradient><linearGradient
       id="gradient_beak_base"><stop
         offset="0"
         stop-color="#020204"
         id="stop43" /><stop
         offset="0.73"
         stop-color="#020204"
         id="stop44" /><stop
         offset="1"
         stop-color="#5c5c5c"
         id="stop45" /></linearGradient><linearGradient
       id="gradient_mandible_lower"><stop
         offset="0"
         stop-color="#d2940a"
         id="stop46" /><stop
         offset="0.75"
         stop-color="#d89c08"
         id="stop47" /><stop
         offset="0.87"
         stop-color="#b67e07"
         id="stop48" /><stop
         offset="1"
         stop-color="#946106"
         id="stop49" /></linearGradient><linearGradient
       id="gradient_mandible_upper"><stop
         offset="0"
         stop-color="#ad780a"
         id="stop50" /><stop
         offset="0.12"
         stop-color="#d89e08"
         id="stop51" /><stop
         offset="0.25"
         stop-color="#edb80b"
         id="stop52" /><stop
         offset="0.39"
         stop-color="#ebc80d"
         id="stop53" /><stop
         offset="0.53"
         stop-color="#f5d838"
         id="stop54" /><stop
         offset="0.77"
         stop-color="#f6d811"
         id="stop55" /><stop
         offset="1"
         stop-color="#f5cd31"
         id="stop56" /></linearGradient><linearGradient
       id="gradient_nares"><stop
         offset="0"
         stop-color="#3a2903"
         id="stop57" /><stop
         offset="0.55"
         stop-color="#735208"
         id="stop58" /><stop
         offset="1"
         stop-color="#ac8c04"
         id="stop59" /></linearGradient><linearGradient
       id="gradient_beak_corner"><stop
         offset="0"
         stop-color="#f5ce2d"
         id="stop60" /><stop
         offset="1"
         stop-color="#d79b08"
         id="stop61" /></linearGradient><radialGradient
       id="fill_belly_shadow_left"
       href="#gradient_belly_shadow"
       xlink:href="#gradient_belly_shadow"
       gradientUnits="userSpaceOnUse"
       cx="0"
       cy="0"
       r="1"
       gradientTransform="matrix(19,0,0,18,61.18,121.19)" /><radialGradient
       id="fill_belly_shadow_right"
       href="#gradient_belly_shadow"
       xlink:href="#gradient_belly_shadow"
       gradientUnits="userSpaceOnUse"
       cx="0"
       cy="0"
       r="1"
       gradientTransform="matrix(23.6,0,0,18,125.74,131.6)" /><radialGradient
       id="fill_belly_shadow_middle"
       href="#gradient_belly_shadow"
       xlink:href="#gradient_belly_shadow"
       gradientUnits="userSpaceOnUse"
       cx="0"
       cy="0"
       r="1"
       gradientTransform="matrix(9.35,0,0,10,94.21,127.47)" /><linearGradient
       id="fill_foot_left_base"
       href="#gradient_foot_left_layer_1"
       xlink:href="#gradient_foot_left_layer_1"
       gradientUnits="userSpaceOnUse"
       x1="23.18"
       y1="193.01"
       x2="64.31"
       y2="262.02" /><linearGradient
       id="fill_foot_left_glare"
       href="#gradient_foot_left_glare"
       xlink:href="#gradient_foot_left_glare"
       gradientUnits="userSpaceOnUse"
       x1="64.47"
       y1="210.83"
       x2="77.41"
       y2="235.21" /><linearGradient
       id="fill_foot_right_shadow"
       href="#gradient_foot_right_shadow"
       xlink:href="#gradient_foot_right_shadow"
       gradientUnits="userSpaceOnUse"
       x1="146.93"
       y1="211.96"
       x2="150.2"
       y2="235.73" /><linearGradient
       id="fill_foot_right_base"
       href="#gradient_foot_right_layer_1"
       xlink:href="#gradient_foot_right_layer_1"
       gradientUnits="userSpaceOnUse"
       x1="151.5"
       y1="253.02"
       x2="192.94"
       y2="185.84" /><linearGradient
       id="fill_foot_right_glare"
       href="#gradient_foot_right_glare"
       xlink:href="#gradient_foot_right_glare"
       gradientUnits="userSpaceOnUse"
       x1="162.81"
       y1="180.67"
       x2="161.59"
       y2="191.64" /><radialGradient
       id="fill_wing_tip_right_shadow_lower"
       href="#gradient_wing_tip_right_shadow"
       xlink:href="#gradient_wing_tip_right_shadow"
       gradientUnits="userSpaceOnUse"
       cx="0"
       cy="0"
       r="1"
       gradientTransform="matrix(18.990102,5.0883824,-5.3420251,19.936709,169.71,194.53)" /><radialGradient
       id="fill_wing_tip_right_shadow_upper"
       href="#gradient_wing_tip_right_shadow"
       xlink:href="#gradient_wing_tip_right_shadow"
       gradientUnits="userSpaceOnUse"
       cx="0"
       cy="0"
       r="1"
       gradientTransform="matrix(19.722395,-0.83350987,0.62745474,14.846747,169.71,189.89)" /><radialGradient
       id="fill_wing_tip_right_glare_1"
       href="#gradient_wing_tip_right_glare_1"
       xlink:href="#gradient_wing_tip_right_glare_1"
       gradientUnits="userSpaceOnUse"
       cx="0"
       cy="0"
       r="1"
       gradientTransform="matrix(6.3735675,2.771306,-1.2799845,2.9437628,184.65,176.62)" /><linearGradient
       id="fill_wing_tip_right_glare_2"
       href="#gradient_wing_tip_right_glare_1"
       xlink:href="#gradient_wing_tip_right_glare_1"
       gradientUnits="userSpaceOnUse"
       x1="165.69"
       y1="173.58"
       x2="168.27"
       y2="173.47" /><radialGradient
       id="fill_eyeball_left"
       href="#gradient_eyeball"
       xlink:href="#gradient_eyeball"
       gradientUnits="userSpaceOnUse"
       cx="0"
       cy="0"
       r="1"
       gradientTransform="matrix(10.239439,-0.10723107,0.16419757,15.67914,86.49,51.41)" /><linearGradient
       id="fill_pupil_left_glare"
       href="#gradient_pupil_left_glare"
       xlink:href="#gradient_pupil_left_glare"
       gradientUnits="userSpaceOnUse"
       x1="84.29"
       y1="46.64"
       x2="89.32"
       y2="55.63" /><radialGradient
       id="fill_eyelid_left"
       href="#gradient_eyelid_left"
       xlink:href="#gradient_eyelid_left"
       gradientUnits="userSpaceOnUse"
       cx="0"
       cy="0"
       r="1"
       gradientTransform="matrix(6.1669645,-1.015406,0.93742278,5.6933416,84.89,43.74)" /><linearGradient
       id="fill_eyebrow_left"
       href="#gradient_eyebrow"
       xlink:href="#gradient_eyebrow"
       gradientUnits="userSpaceOnUse"
       x1="83.59"
       y1="32.51"
       x2="94.48"
       y2="43.63" /><radialGradient
       id="fill_eyeball_right"
       href="#gradient_eyeball"
       xlink:href="#gradient_eyeball"
       gradientUnits="userSpaceOnUse"
       cx="0"
       cy="0"
       r="1"
       gradientTransform="matrix(13.633269,-0.42844275,0.4925207,15.672263,118.06,51.41)" /><linearGradient
       id="fill_pupil_right_glare"
       href="#gradient_pupil_right_glare_2"
       xlink:href="#gradient_pupil_right_glare_2"
       gradientUnits="userSpaceOnUse"
       x1="117.87"
       y1="47.25"
       x2="123.66"
       y2="54.11" /><linearGradient
       id="fill_eyelid_right"
       href="#gradient_eyelid_right"
       xlink:href="#gradient_eyelid_right"
       gradientUnits="userSpaceOnUse"
       x1="112.9"
       y1="36.23"
       x2="131.32"
       y2="47.01" /><linearGradient
       id="fill_eyebrow_right"
       href="#gradient_eyebrow"
       xlink:href="#gradient_eyebrow"
       gradientUnits="userSpaceOnUse"
       x1="119.16"
       y1="31.56"
       x2="131.42"
       y2="43.14" /><radialGradient
       id="fill_beak_base"
       href="#gradient_beak_base"
       xlink:href="#gradient_beak_base"
       gradientUnits="userSpaceOnUse"
       cx="0"
       cy="0"
       r="1"
       gradientTransform="matrix(9.2551544,-6.7242633,6.1012109,8.3975964,97.64,60.12)" /><radialGradient
       id="fill_mandible_lower_base"
       href="#gradient_mandible_lower"
       xlink:href="#gradient_mandible_lower"
       gradientUnits="userSpaceOnUse"
       cx="0"
       cy="0"
       r="1"
       gradientTransform="matrix(25.101425,-10.346061,7.2670121,17.631093,109.77,70.61)" /><linearGradient
       id="fill_mandible_upper_base"
       href="#gradient_mandible_upper"
       xlink:href="#gradient_mandible_upper"
       gradientUnits="userSpaceOnUse"
       x1="78.09"
       y1="69.26"
       x2="126.77"
       y2="68.88" /><radialGradient
       id="fill_naris_left"
       href="#gradient_nares"
       xlink:href="#gradient_nares"
       gradientUnits="userSpaceOnUse"
       cx="0"
       cy="0"
       r="1"
       gradientTransform="matrix(1.32,0,0,1.42,92.11,59.88)" /><radialGradient
       id="fill_naris_right"
       href="#gradient_nares"
       xlink:href="#gradient_nares"
       gradientUnits="userSpaceOnUse"
       cx="0"
       cy="0"
       r="1"
       gradientTransform="matrix(2.78,0,0,1.62,104.65,59.7)" /><linearGradient
       id="fill_beak_corner"
       href="#gradient_beak_corner"
       xlink:href="#gradient_beak_corner"
       gradientUnits="userSpaceOnUse"
       x1="126.74"
       y1="67.49"
       x2="126.74"
       y2="71.09" /><filter
       id="blur_belly_shadow_left"
       x="-0.049918751"
       y="-0.045849254"
       width="1.0998375"
       height="1.0916985"><feGaussianBlur
         stdDeviation="0.64 0.55"
         id="feGaussianBlur61" /></filter><filter
       id="blur_belly_shadow_right"
       x="-0.050747188"
       y="-0.073202616"
       width="1.1014944"
       height="1.1464052"><feGaussianBlur
         stdDeviation="0.98"
         id="feGaussianBlur62" /></filter><filter
       id="blur_belly_shadow_middle"
       x="-0.087319423"
       y="-0.081681683"
       width="1.1746388"
       height="1.1633634"><feGaussianBlur
         stdDeviation="0.68"
         id="feGaussianBlur63" /></filter><filter
       id="blur_belly_shadow_lower"
       x="-0.81953784"
       width="2.6390757"
       y="-0.057993427"
       height="1.1159869"><feGaussianBlur
         stdDeviation="1.25"
         id="feGaussianBlur64" /></filter><filter
       id="blur_belly_glare"
       x="-0.49197012"
       width="1.9839402"
       y="-0.59291106"
       height="2.1858221"><feGaussianBlur
         stdDeviation="1.78 2.19"
         id="feGaussianBlur65" /></filter><filter
       id="blur_head_glare"
       x="-0.29258274"
       width="1.5851655"
       y="-0.30859164"
       height="1.6171833"><feGaussianBlur
         stdDeviation="1.73"
         id="feGaussianBlur66" /></filter><filter
       id="blur_neck_glare"
       x="-0.17840844"
       width="1.3568169"
       y="-0.1601733"
       height="1.3203466"><feGaussianBlur
         stdDeviation="0.78"
         id="feGaussianBlur67" /></filter><filter
       id="blur_wing_left_glare"
       x="-0.1014502"
       width="1.2029004"
       y="-0.042861973"
       height="1.0857239"><feGaussianBlur
         stdDeviation="0.98"
         id="feGaussianBlur68" /></filter><filter
       id="blur_wing_right_glare"
       x="-0.11789708"
       width="1.2357942"
       y="-0.040211942"
       height="1.0804239"><feGaussianBlur
         stdDeviation="1.19 1.17"
         id="feGaussianBlur69" /></filter><filter
       id="blur_foot_left_layer_1"
       x="-0.10746297"
       width="1.2149259"
       y="-0.1084514"
       height="1.2169028"><feGaussianBlur
         stdDeviation="3.38"
         id="feGaussianBlur70" /></filter><filter
       id="blur_foot_left_layer_2"
       x="-0.075378264"
       y="-0.069657499"
       width="1.1507565"
       height="1.139315"><feGaussianBlur
         stdDeviation="2.1 2.06"
         id="feGaussianBlur71" /></filter><filter
       id="blur_foot_left_glare"
       x="-0.033862433"
       y="-0.018667963"
       width="1.0677249"
       height="1.0373359"><feGaussianBlur
         stdDeviation="0.32"
         id="feGaussianBlur72" /></filter><filter
       id="blur_foot_right_shadow"
       x="-0.076044024"
       y="-0.068073295"
       width="1.152088"
       height="1.1361466"><feGaussianBlur
         stdDeviation="1.95 1.9"
         id="feGaussianBlur73" /></filter><filter
       id="blur_foot_right_layer_1"
       x="-0.14509234"
       width="1.2901847"
       y="-0.14307408"
       height="1.2861482"><feGaussianBlur
         stdDeviation="4.12"
         id="feGaussianBlur74" /></filter><filter
       id="blur_foot_right_layer_2"
       x="-0.11510966"
       width="1.2302193"
       y="-0.12497624"
       height="1.2499525"><feGaussianBlur
         stdDeviation="3.12 3.37"
         id="feGaussianBlur75" /></filter><filter
       id="blur_foot_right_glare"
       x="-0.020750738"
       width="1.0415015"
       y="-0.12827013"
       height="1.2565403"><feGaussianBlur
         stdDeviation="0.41"
         id="feGaussianBlur76" /></filter><filter
       id="blur_wing_tip_right_shadow_lower"
       x="-0.20043875"
       width="1.4008775"
       y="-0.23394803"
       height="1.4678961"><feGaussianBlur
         stdDeviation="2.45"
         id="feGaussianBlur77" /></filter><filter
       id="blur_wing_tip_right_shadow_upper"
       x="-0.091629141"
       width="1.1832583"
       y="-0.10698003"
       height="1.2139601"><feGaussianBlur
         stdDeviation="1.12 0.81"
         id="feGaussianBlur78" /></filter><filter
       id="blur_wing_tip_right_glare"
       x="-0.070171062"
       width="1.1403421"
       y="-0.14997803"
       height="1.2999561"><feGaussianBlur
         stdDeviation="0.88"
         id="feGaussianBlur79" /></filter><filter
       id="blur_pupil_left_glare"
       x="-0.23332936"
       width="1.4666587"
       y="-0.14543877"
       height="1.2908775"><feGaussianBlur
         stdDeviation="0.44"
         id="feGaussianBlur80" /></filter><filter
       id="blur_eyebrow_left"
       x="-0.023848306"
       y="-0.026522859"
       width="1.0476966"
       height="1.0530457"><feGaussianBlur
         stdDeviation="0.12"
         id="feGaussianBlur81" /></filter><filter
       id="blur_pupil_right_glare"
       x="-0.17958931"
       width="1.3591786"
       y="-0.18232284"
       height="1.3646457"><feGaussianBlur
         stdDeviation="0.45"
         id="feGaussianBlur82" /></filter><filter
       id="blur_eyebrow_right"
       x="-0.023600604"
       y="-0.02557377"
       width="1.0472012"
       height="1.0511475"><feGaussianBlur
         stdDeviation="0.13"
         id="feGaussianBlur83" /></filter><filter
       id="blur_beak_shadow_lower"
       x="-0.076201891"
       width="1.1524038"
       y="-0.12887719"
       height="1.2577544"><feGaussianBlur
         stdDeviation="1.75"
         id="feGaussianBlur84" /></filter><filter
       id="blur_beak_shadow_upper"
       x="-0.036392431"
       y="-0.07408861"
       width="1.0727849"
       height="1.1481772"><feGaussianBlur
         stdDeviation="0.8 0.74"
         id="feGaussianBlur85" /></filter><filter
       id="blur_mandible_lower_glare"
       x="-0.15436869"
       width="1.3087374"
       y="-0.21067211"
       height="1.4213442"><feGaussianBlur
         stdDeviation="0.77"
         id="feGaussianBlur86" /></filter><filter
       id="blur_mandible_upper_shadow"
       x="-0.034221465"
       y="-0.078978968"
       width="1.0684429"
       height="1.1579579"><feGaussianBlur
         stdDeviation="0.65"
         id="feGaussianBlur87" /></filter><filter
       id="blur_mandible_upper_glare"
       x="-0.16064714"
       width="1.3212943"
       y="-0.13003773"
       height="1.2600755"><feGaussianBlur
         stdDeviation="0.73"
         id="feGaussianBlur88" /></filter><filter
       id="blur_naris_left"
       x="-0.12244099"
       width="1.244882"
       y="-0.11124302"
       height="1.222486"><feGaussianBlur
         stdDeviation="0.1"
         id="feGaussianBlur89" /></filter><filter
       id="blur_naris_right"
       x="-0.049122258"
       y="-0.093498015"
       width="1.0982445"
       height="1.186996"><feGaussianBlur
         stdDeviation="0.1"
         id="feGaussianBlur90" /></filter><filter
       id="blur_beak_corner"
       x="-0.11091169"
       width="1.2218234"
       y="-0.090640126"
       height="1.1812803"><feGaussianBlur
         stdDeviation="0.23"
         id="feGaussianBlur91" /></filter><clipPath
       id="clip_body"><path
         id="use91"
         fill="#020204"
         d="m 106.95,0 c -6,0 -12.02,1.18 -17.46,4.12 -5.78,3.11 -10.52,8.09 -13.43,13.97 -2.92,5.88 -4.06,12.16 -4.24,19.08 -0.33,13.14 0.3,26.92 1.29,39.41 0.26,3.8 0.74,6.02 0.25,9.93 -1.62,8.3 -8.88,13.88 -12.76,21.17 -4.27,8.04 -6.07,17.13 -9.29,25.65 -2.95,7.79 -7.09,15.1 -9.88,22.95 -3.91,10.97 -5.08,23.03 -2.5,34.39 1.97,8.66 6.08,16.78 11.62,23.73 -0.8,1.44 -1.58,2.91 -2.4,4.34 -2.57,4.43 -5.71,8.64 -7.17,13.55 -0.73,2.45 -1.02,5.07 -0.55,7.59 0.47,2.52 1.75,4.93 3.75,6.53 1.31,1.04 2.9,1.72 4.53,2.1 1.63,0.37 3.32,0.46 5,0.43 6.37,-0.14 12.55,-2.07 18.71,-3.69 3.66,-0.96 7.34,-1.81 11.03,-2.58 13.14,-2.69 27.8,-1.61 39.99,0.15 4.13,0.63 8.23,1.44 12.29,2.43 6.36,1.54 12.69,3.5 19.23,3.69 1.72,0.05 3.46,-0.03 5.14,-0.4 1.68,-0.38 3.31,-1.06 4.65,-2.13 2.01,-1.6 3.29,-4.02 3.76,-6.54 0.47,-2.52 0.18,-5.15 -0.56,-7.61 -1.48,-4.92 -4.65,-9.11 -7.27,-13.52 -1.04,-1.75 -2,-3.53 -3.03,-5.28 7.9,-8.87 14.26,-19.13 17.94,-30.4 4.01,-12.3 4.75,-25.55 3.06,-38.38 -1.69,-12.83 -5.76,-25.27 -11.11,-37.05 -6.72,-14.76 -12.37,-20.1 -16.47,-33.07 -4.42,-14.02 -0.77,-30.61 -4.06,-43.32 -1.17,-4.32 -3.04,-8.45 -5.45,-12.23 -2.82,-4.43 -6.4,-8.39 -10.65,-11.47 C 124.13,2.62 115.61,0 106.95,0 Z"
         style="stroke-width:0.358171" /></clipPath><clipPath
       id="clip_wing_left"><path
         id="use92"
         fill="#020204"
         d="m 63.98,100.91 c -6.1,6.92 -12.37,13.63 -15.81,21.12 -1.71,3.8 -2.51,7.93 -3.68,11.93 -1.32,4.54 -3.12,8.94 -5.14,13.22 -1.87,3.95 -3.93,7.81 -5.98,11.66 -1.5,2.81 -3.02,5.67 -3.54,8.81 -0.41,2.48 -0.18,5.04 0.46,7.47 0.63,2.43 1.64,4.75 2.79,6.98 4.88,9.55 12.21,17.77 20.89,24.07 3.94,2.85 8.15,5.32 12.58,7.35 2.4,1.09 4.92,2.07 7.56,2.11 1.32,0.03 2.65,-0.19 3.86,-0.72 1.2,-0.53 2.28,-1.38 3,-2.49 0.88,-1.36 1.18,-3.05 1,-4.66 -0.18,-1.61 -0.81,-3.15 -1.65,-4.53 -2.06,-3.38 -5.31,-5.83 -8.44,-8.25 -6.76,-5.23 -13.29,-10.76 -19.55,-16.58 -1.76,-1.65 -3.53,-3.34 -4.76,-5.42 -1.2,-2.02 -1.85,-4.32 -2.29,-6.63 -1.21,-6.33 -0.9,-12.99 1.25,-19.07 0.85,-2.38 1.96,-4.65 3.04,-6.93 1.86,-3.95 3.62,-7.98 6.07,-11.6 3.05,-4.51 7.13,-8.33 9.61,-13.17 2.1,-4.09 2.95,-8.68 3.76,-13.2 0.64,-3.54 1.85,-7 2.47,-10.54 -1.21,2.3 -5.11,6.07 -7.5,9.07 z"
         style="stroke-width:0.358171" /></clipPath><clipPath
       id="clip_wing_right"><path
         id="use93"
         fill="#020204"
         d="m 162.76,127.12 c 5.24,4.22 8.57,10.59 9.6,17.24 0.8,5.18 0.28,10.51 -0.89,15.62 -1.17,5.12 -2.97,10.06 -4.77,15 -0.71,1.96 -1.43,3.95 -1.71,6.02 -0.29,2.08 -0.11,4.27 0.89,6.11 1.15,2.11 3.29,3.56 5.59,4.24 2.27,0.68 4.72,0.66 7.02,0.09 2.3,-0.57 6.17,-1.31 8.04,-2.77 4.75,-3.69 5.88,-10.1 7.01,-15.72 1.17,-5.87 0.6,-12.02 -0.43,-17.95 -1.41,-8.09 -3.78,-15.99 -6.79,-23.62 -2.22,-5.62 -5.06,-10.98 -8.44,-15.96 -3.32,-4.89 -8.02,-8.7 -11.5,-13.48 -1.21,-1.66 -2.66,-3.38 -3.84,-5.06 -2.56,-3.62 -1.98,-2.94 -3.57,-5.29 -1.15,-1.7 -2.97,-2.28 -4.88,-3.02 -1.92,-0.74 -4.06,-0.96 -6.04,-0.41 -2.6,0.73 -4.73,2.79 -5.86,5.24 -1.13,2.46 -1.33,5.28 -0.89,7.95 0.57,3.44 2.14,6.64 3.92,9.64 2,3.39 4.32,6.66 7.35,9.18 3.16,2.63 6.98,4.37 10.19,6.95 z"
         style="stroke-width:0.358171" /></clipPath><clipPath
       id="clip_foot_left"><path
         id="use94"
         fill="url(#fill_foot_left_base)"
         d="m 34.98,175.33 c 1.38,-0.57 2.93,-0.68 4.39,-0.41 1.47,0.27 2.86,0.91 4.09,1.74 2.47,1.68 4.3,4.12 6.05,6.54 4.03,5.54 7.9,11.2 11.42,17.08 2.85,4.78 5.46,9.71 8.76,14.18 2.15,2.93 4.57,5.64 6.73,8.55 2.16,2.92 4.07,6.08 5.03,9.58 1.25,4.55 0.76,9.56 -1.4,13.75 -1.52,2.95 -3.86,5.48 -6.7,7.19 -2.84,1.71 -5.83,2.47 -9.15,2.47 -5.27,0 -10.42,-2.83 -15.32,-4.78 C 38.9,247.24 28.06,246 17.77,242.9 14.61,241.95 11.5,240.82 8.32,239.95 6.9,239.56 5.47,239.22 4.13,238.61 2.79,238.01 1.54,237.1 0.8,235.84 0.23,234.86 0,233.71 0,232.58 c 0,-1.14 0.28,-2.26 0.67,-3.32 0.77,-2.13 2.02,-4.06 2.86,-6.17 1.37,-3.44 1.62,-7.23 1.43,-10.93 -0.18,-3.69 -0.78,-7.36 -1.03,-11.05 -0.12,-1.65 -0.16,-3.32 0.16,-4.95 0.31,-1.62 1.01,-3.21 2.2,-4.35 1.1,-1.06 2.55,-1.69 4.05,-2 1.49,-0.31 3.03,-0.32 4.55,-0.29 1.52,0.03 3.05,0.12 4.57,-0.01 1.52,-0.12 3.05,-0.46 4.37,-1.22 1.26,-0.72 2.29,-1.79 3.14,-2.96 0.85,-1.17 1.54,-2.45 2.25,-3.72 0.7,-1.26 1.43,-2.52 2.36,-3.64 0.92,-1.12 2.06,-2.09 3.4,-2.64 z"
         style="fill:url(#linearGradient44);stroke-width:0.358171" /></clipPath><clipPath
       id="clip_foot_right"><path
         id="use95"
         fill="url(#fill_foot_right_base)"
         d="m 213.47,222.92 c -2.26,2.68 -5.4,4.45 -8.53,6.05 -5.33,2.71 -10.86,5.1 -15.87,8.37 -3.36,2.19 -6.46,4.76 -9.36,7.53 -2.48,2.37 -4.83,4.9 -7.61,6.91 -2.81,2.03 -6.05,3.5 -9.48,4.01 -0.95,0.14 -1.9,0.21 -2.86,0.21 -3.24,0 -6.48,-0.78 -9.46,-2.08 -2.7,-1.17 -5.3,-2.86 -6.86,-5.36 -1.56,-2.52 -1.92,-5.59 -1.92,-8.56 -0.01,-5.23 0.96,-10.41 1.87,-15.57 0.76,-4.29 1.48,-8.58 1.95,-12.91 0.85,-7.86 0.84,-15.81 0.28,-23.71 -0.1,-1.32 -0.21,-2.65 -0.01,-3.96 0.2,-1.31 0.74,-2.62 1.74,-3.48 0.93,-0.8 2.17,-1.16 3.4,-1.22 1.22,-0.07 2.44,0.12 3.65,0.3 2.85,0.42 5.73,0.74 8.52,1.48 1.76,0.46 3.48,1.08 5.23,1.56 2.94,0.79 6.01,1.17 9.02,0.82 3.25,-0.38 6.41,-1.6 9.68,-1.52 1.34,0.03 2.67,0.28 3.95,0.69 1.3,0.41 2.59,1 3.55,1.98 0.73,0.74 1.24,1.67 1.62,2.64 0.57,1.44 0.88,2.98 1.01,4.52 0.11,1.37 0.09,2.76 0.35,4.11 0.43,2.21 1.6,4.24 3.04,5.97 1.45,1.74 3.18,3.21 4.91,4.66 1.73,1.45 3.46,2.89 5.32,4.16 0.87,0.6 1.77,1.16 2.6,1.81 0.83,0.66 1.59,1.42 2.11,2.34 0.45,0.81 0.69,1.72 0.69,2.65 0,0.52 -0.07,1.04 -0.23,1.56 -0.45,1.43 -1.28,2.82 -2.3,4.04 z"
         style="fill:url(#linearGradient45);stroke-width:0.358171" /></clipPath><clipPath
       id="clip_wing_tip_right"><path
         id="use96"
         fill="#020204"
         d="m 189.55,178.72 c -0.35,-0.95 -0.97,-1.79 -1.72,-2.47 -0.75,-0.68 -1.64,-1.2 -2.57,-1.6 -1.86,-0.79 -3.89,-1.09 -5.89,-1.46 -1.87,-0.35 -3.74,-0.78 -5.62,-1.1 -1.96,-0.33 -3.98,-0.55 -5.92,-0.11 -1.69,0.38 -3.26,1.26 -4.54,2.43 -1.28,1.17 -2.28,2.63 -3,4.21 -1.27,2.79 -1.67,5.92 -1.43,8.97 0.18,2.27 0.76,4.61 2.25,6.32 1.21,1.39 2.92,2.26 4.68,2.78 3.04,0.9 6.35,0.85 9.36,-0.13 4.97,-1.67 9.37,-4.98 12.35,-9.29 0.98,-1.43 1.82,-2.98 2.2,-4.66 0.29,-1.28 0.3,-2.66 -0.15,-3.89 z"
         style="stroke-width:0.358171" /></clipPath><clipPath
       id="clip_eye_left"><path
         id="use97"
         fill="url(#fill_eyeball_left)"
         d="m 84.45,38.28 c -1.53,0.08 -3,0.79 -4.12,1.84 -1.13,1.05 -1.92,2.43 -2.41,3.88 -0.97,2.92 -0.75,6.08 -0.53,9.15 0.2,2.77 0.41,5.6 1.45,8.18 0.52,1.3 1.25,2.51 2.22,3.51 0.97,0.99 2.2,1.76 3.55,2.09 1.26,0.32 2.62,0.26 3.86,-0.13 1.25,-0.4 2.38,-1.11 3.32,-2.02 1.36,-1.33 2.27,-3.07 2.8,-4.9 0.53,-1.83 0.68,-3.75 0.65,-5.66 -0.04,-2.38 -0.35,-4.77 -1.09,-7.03 -0.75,-2.26 -1.94,-4.4 -3.6,-6.11 -0.8,-0.83 -1.72,-1.55 -2.75,-2.06 -1.04,-0.51 -2.2,-0.8 -3.35,-0.74 z"
         style="fill:url(#radialGradient45);stroke-width:0.358171" /></clipPath><clipPath
       id="clip_pupil_left"><path
         id="use98"
         fill="#020204"
         d="m 80.75,50.99 c -0.32,1.94 -0.33,3.97 0.33,5.81 0.44,1.22 1.17,2.33 2.05,3.28 0.57,0.62 1.23,1.18 1.99,1.55 0.77,0.37 1.65,0.52 2.48,0.32 0.76,-0.19 1.42,-0.68 1.91,-1.29 0.49,-0.61 0.82,-1.34 1.05,-2.09 0.69,-2.21 0.58,-4.62 -0.11,-6.83 -0.49,-1.61 -1.32,-3.16 -2.6,-4.24 -0.62,-0.52 -1.34,-0.93 -2.12,-1.11 -0.78,-0.19 -1.63,-0.14 -2.36,0.19 -0.81,0.37 -1.44,1.07 -1.85,1.86 -0.41,0.79 -0.62,1.67 -0.77,2.55 z"
         style="stroke-width:0.358171" /></clipPath><clipPath
       id="clip_eye_right"><path
         id="use99"
         fill="url(#fill_eyeball_right)"
         d="m 111.61,38.28 c -2.39,1.65 -4.4,3.94 -5.38,6.68 -1.24,3.45 -0.77,7.31 0.43,10.77 1.22,3.55 3.27,6.93 6.36,9.06 1.54,1.07 3.33,1.8 5.19,2.02 1.87,0.22 3.8,-0.09 5.47,-0.95 2.02,-1.06 3.57,-2.91 4.53,-4.98 0.96,-2.08 1.37,-4.37 1.5,-6.66 0.16,-2.9 -0.12,-5.86 -1.08,-8.61 -1.04,-2.99 -2.92,-5.75 -5.58,-7.47 -1.32,-0.86 -2.83,-1.45 -4.4,-1.67 -1.57,-0.22 -3.19,-0.05 -4.67,0.52 -0.84,0.33 -1.62,0.78 -2.37,1.29 z"
         style="fill:url(#radialGradient46);stroke-width:0.358171" /></clipPath><clipPath
       id="clip_pupil_right"><path
         id="use100"
         fill="#020204"
         d="m 117.14,45.52 c -0.9,0.06 -1.78,0.37 -2.55,0.85 -0.76,0.48 -1.41,1.13 -1.92,1.88 -1.03,1.49 -1.48,3.31 -1.55,5.12 -0.05,1.35 0.1,2.72 0.55,4 0.45,1.28 1.2,2.47 2.25,3.33 1.07,0.89 2.42,1.42 3.81,1.49 1.39,0.06 2.79,-0.34 3.93,-1.13 0.91,-0.63 1.64,-1.5 2.16,-2.48 0.52,-0.97 0.84,-2.05 0.98,-3.15 0.25,-1.93 -0.03,-3.95 -0.93,-5.69 -0.89,-1.74 -2.41,-3.17 -4.24,-3.84 -0.8,-0.29 -1.65,-0.44 -2.49,-0.38 z"
         style="stroke-width:0.358171" /></clipPath><clipPath
       id="clip_mandible_lower"><path
         id="use101"
         fill="url(#fill_mandible_lower_base)"
         d="m 77.14,75.05 c 0.06,0.26 0.15,0.5 0.28,0.73 0.23,0.38 0.57,0.69 0.93,0.95 0.36,0.27 0.75,0.49 1.13,0.72 2.01,1.27 3.65,3.04 5.11,4.92 1.95,2.52 3.68,5.31 6.29,7.14 1.84,1.3 4.04,2.03 6.28,2.26 2.63,0.26 5.29,-0.16 7.83,-0.91 2.35,-0.69 4.62,-1.66 6.7,-2.95 3.97,-2.44 7.28,-6.02 11.65,-7.63 0.95,-0.35 1.94,-0.6 2.86,-1.03 0.92,-0.44 1.79,-1.08 2.23,-2 0.42,-0.88 0.4,-1.9 0.54,-2.87 0.15,-1.03 0.48,-2.03 0.66,-3.06 0.18,-1.03 0.2,-2.13 -0.24,-3.08 -0.37,-0.78 -1.04,-1.4 -1.81,-1.79 -0.77,-0.4 -1.64,-0.58 -2.51,-0.62 -1.72,-0.08 -3.43,0.36 -5.16,0.52 -2.28,0.21 -4.58,-0.09 -6.87,-0.02 -2.85,0.09 -5.66,0.73 -8.51,0.87 -3.25,0.15 -6.49,-0.35 -9.74,-0.48 -1.41,-0.06 -2.83,-0.04 -4.22,0.2 -1.39,0.23 -2.75,0.71 -3.91,1.51 -1.13,0.78 -2.03,1.84 -3.07,2.74 -0.52,0.45 -1.08,0.86 -1.7,1.16 -0.61,0.3 -1.29,0.49 -1.98,0.47 -0.35,-0.01 -0.72,-0.06 -1.05,0.04 -0.21,0.07 -0.4,0.2 -0.56,0.35 -0.16,0.16 -0.29,0.34 -0.41,0.52 -0.29,0.42 -0.54,0.87 -0.75,1.34 z"
         style="fill:url(#radialGradient47);stroke-width:0.358171" /></clipPath><clipPath
       id="clip_mandible_upper"><path
         id="use102"
         fill="url(#fill_mandible_upper_base)"
         d="m 83.94,63.95 c -1.66,1.12 -3.16,2.49 -4.43,4.04 -0.72,0.89 -1.38,1.86 -1.74,2.94 -0.29,0.86 -0.39,1.76 -0.57,2.65 -0.07,0.33 -0.15,0.66 -0.14,1 0,0.16 0.02,0.33 0.07,0.5 0.05,0.16 0.14,0.31 0.25,0.43 0.2,0.2 0.47,0.31 0.74,0.37 0.28,0.05 0.56,0.06 0.84,0.09 1.25,0.15 2.4,0.75 3.44,1.47 1.04,0.71 2,1.55 3.07,2.22 2.35,1.49 5.16,2.15 7.95,2.26 2.78,0.11 5.56,-0.31 8.3,-0.86 2.17,-0.43 4.33,-0.95 6.39,-1.76 3.16,-1.25 6.01,-3.16 8.72,-5.19 1.24,-0.92 2.46,-1.87 3.57,-2.94 0.37,-0.37 0.74,-0.74 1.14,-1.08 0.4,-0.33 0.85,-0.62 1.35,-0.78 0.76,-0.24 1.58,-0.17 2.37,-0.04 0.59,0.1 1.18,0.23 1.78,0.21 0.3,-0.02 0.6,-0.07 0.88,-0.18 0.28,-0.11 0.54,-0.28 0.73,-0.52 0.25,-0.3 0.38,-0.7 0.38,-1.09 0,-0.4 -0.12,-0.79 -0.32,-1.13 -0.4,-0.68 -1.09,-1.14 -1.81,-1.46 -0.99,-0.44 -2.06,-0.65 -3.11,-0.91 -3.23,-0.78 -6.37,-1.93 -9.34,-3.41 -1.48,-0.73 -2.92,-1.54 -4.37,-2.32 -1.5,-0.8 -3.02,-1.57 -4.64,-2.07 -3.64,-1.1 -7.6,-0.74 -11.19,0.51 -3.98,1.38 -7.58,3.84 -10.31,7.05 z"
         style="fill:url(#linearGradient48);stroke-width:0.358171" /></clipPath><clipPath
       id="clip_beak"><path
         id="use103"
         fill="url(#fill_mandible_lower_base)"
         d="m 77.14,75.05 c 0.06,0.26 0.15,0.5 0.28,0.73 0.23,0.38 0.57,0.69 0.93,0.95 0.36,0.27 0.75,0.49 1.13,0.72 2.01,1.27 3.65,3.04 5.11,4.92 1.95,2.52 3.68,5.31 6.29,7.14 1.84,1.3 4.04,2.03 6.28,2.26 2.63,0.26 5.29,-0.16 7.83,-0.91 2.35,-0.69 4.62,-1.66 6.7,-2.95 3.97,-2.44 7.28,-6.02 11.65,-7.63 0.95,-0.35 1.94,-0.6 2.86,-1.03 0.92,-0.44 1.79,-1.08 2.23,-2 0.42,-0.88 0.4,-1.9 0.54,-2.87 0.15,-1.03 0.48,-2.03 0.66,-3.06 0.18,-1.03 0.2,-2.13 -0.24,-3.08 -0.37,-0.78 -1.04,-1.4 -1.81,-1.79 -0.77,-0.4 -1.64,-0.58 -2.51,-0.62 -1.72,-0.08 -3.43,0.36 -5.16,0.52 -2.28,0.21 -4.58,-0.09 -6.87,-0.02 -2.85,0.09 -5.66,0.73 -8.51,0.87 -3.25,0.15 -6.49,-0.35 -9.74,-0.48 -1.41,-0.06 -2.83,-0.04 -4.22,0.2 -1.39,0.23 -2.75,0.71 -3.91,1.51 -1.13,0.78 -2.03,1.84 -3.07,2.74 -0.52,0.45 -1.08,0.86 -1.7,1.16 -0.61,0.3 -1.29,0.49 -1.98,0.47 -0.35,-0.01 -0.72,-0.06 -1.05,0.04 -0.21,0.07 -0.4,0.2 -0.56,0.35 -0.16,0.16 -0.29,0.34 -0.41,0.52 -0.29,0.42 -0.54,0.87 -0.75,1.34 z"
         style="fill:url(#radialGradient48);stroke-width:0.358171" /><path
         id="use104"
         fill="url(#fill_mandible_upper_base)"
         d="m 83.94,63.95 c -1.66,1.12 -3.16,2.49 -4.43,4.04 -0.72,0.89 -1.38,1.86 -1.74,2.94 -0.29,0.86 -0.39,1.76 -0.57,2.65 -0.07,0.33 -0.15,0.66 -0.14,1 0,0.16 0.02,0.33 0.07,0.5 0.05,0.16 0.14,0.31 0.25,0.43 0.2,0.2 0.47,0.31 0.74,0.37 0.28,0.05 0.56,0.06 0.84,0.09 1.25,0.15 2.4,0.75 3.44,1.47 1.04,0.71 2,1.55 3.07,2.22 2.35,1.49 5.16,2.15 7.95,2.26 2.78,0.11 5.56,-0.31 8.3,-0.86 2.17,-0.43 4.33,-0.95 6.39,-1.76 3.16,-1.25 6.01,-3.16 8.72,-5.19 1.24,-0.92 2.46,-1.87 3.57,-2.94 0.37,-0.37 0.74,-0.74 1.14,-1.08 0.4,-0.33 0.85,-0.62 1.35,-0.78 0.76,-0.24 1.58,-0.17 2.37,-0.04 0.59,0.1 1.18,0.23 1.78,0.21 0.3,-0.02 0.6,-0.07 0.88,-0.18 0.28,-0.11 0.54,-0.28 0.73,-0.52 0.25,-0.3 0.38,-0.7 0.38,-1.09 0,-0.4 -0.12,-0.79 -0.32,-1.13 -0.4,-0.68 -1.09,-1.14 -1.81,-1.46 -0.99,-0.44 -2.06,-0.65 -3.11,-0.91 -3.23,-0.78 -6.37,-1.93 -9.34,-3.41 -1.48,-0.73 -2.92,-1.54 -4.37,-2.32 -1.5,-0.8 -3.02,-1.57 -4.64,-2.07 -3.64,-1.1 -7.6,-0.74 -11.19,0.51 -3.98,1.38 -7.58,3.84 -10.31,7.05 z"
         style="fill:url(#linearGradient49);stroke-width:0.358171" /></clipPath><path
       id="path_wing_tip_right_glare"
       d="m 168.89,171.07 c -0.47,0.03 -0.93,0.08 -1.4,0.17 -2.99,0.53 -5.73,2.42 -7.27,5.03 -1.09,1.85 -1.58,4.03 -1.43,6.17 0.07,-1.5 0.46,-2.97 1.19,-4.28 1.23,-2.23 3.47,-3.91 5.98,-4.37 1.54,-0.28 3.13,-0.11 4.68,0.08 1.5,0.19 3,0.39 4.47,0.7 2.28,0.5 4.53,1.26 6.44,2.59 0.44,0.31 0.86,0.66 1.21,1.08 0.35,0.41 0.62,0.89 0.73,1.42 0.15,0.78 -0.07,1.6 -0.46,2.29 -0.39,0.7 -0.92,1.3 -1.48,1.86 -0.46,0.46 -0.94,0.89 -1.43,1.32 2.21,-0.43 4.44,-1.03 6.28,-2.31 0.77,-0.55 1.48,-1.2 1.94,-2.02 0.46,-0.83 0.65,-1.83 0.43,-2.75 -0.16,-0.62 -0.5,-1.19 -0.92,-1.67 -0.42,-0.48 -0.93,-0.87 -1.45,-1.24 -2.31,-1.62 -5.01,-2.65 -7.81,-2.99 -1.8,-0.33 -3.61,-0.61 -5.42,-0.83 -1.41,-0.18 -2.86,-0.33 -4.28,-0.25 z" /><filter
       style="color-interpolation-filters:sRGB;"
       inkscape:label="Drop Shadow"
       id="filter5"
       x="-0.068180228"
       y="-0.068293673"
       width="1.1363605"
       height="1.1365873"><feFlood
         result="flood"
         in="SourceGraphic"
         flood-opacity="0.835294"
         flood-color="rgb(0,0,0)"
         id="feFlood4" /><feGaussianBlur
         result="blur"
         in="SourceGraphic"
         stdDeviation="2.500000"
         id="feGaussianBlur4" /><feOffset
         result="offset"
         in="blur"
         dx="0.000000"
         dy="0.000000"
         id="feOffset4" /><feComposite
         result="comp1"
         operator="in"
         in="flood"
         in2="offset"
         id="feComposite4" /><feComposite
         result="comp2"
         operator="over"
         in="SourceGraphic"
         in2="comp1"
         id="feComposite5" /></filter><filter
       style="color-interpolation-filters:sRGB;"
       inkscape:label="Drop Shadow"
       id="filter7"
       x="-0.027777778"
       y="-0.0234375"
       width="1.0555556"
       height="1.046875"><feFlood
         result="flood"
         in="SourceGraphic"
         flood-opacity="0.835294"
         flood-color="rgb(0,0,0)"
         id="feFlood5" /><feGaussianBlur
         result="blur"
         in="SourceGraphic"
         stdDeviation="2.500000"
         id="feGaussianBlur5" /><feOffset
         result="offset"
         in="blur"
         dx="0.000000"
         dy="0.000000"
         id="feOffset5" /><feComposite
         result="comp1"
         operator="in"
         in="flood"
         in2="offset"
         id="feComposite6" /><feComposite
         result="comp2"
         operator="over"
         in="SourceGraphic"
         in2="comp1"
         id="feComposite7" /></filter><filter
       inkscape:collect="always"
       style="color-interpolation-filters:sRGB"
       id="filter2"
       x="-0.1679491"
       y="-0.14494239"
       width="1.3358982"
       height="1.2898848"><feGaussianBlur
         inkscape:collect="always"
         stdDeviation="1.085918"
         id="feGaussianBlur2" /></filter><filter
       inkscape:collect="always"
       style="color-interpolation-filters:sRGB"
       id="filter3"
       x="-0.1679491"
       y="-0.14494239"
       width="1.3358982"
       height="1.2898848"><feGaussianBlur
         inkscape:collect="always"
         stdDeviation="1.085918"
         id="feGaussianBlur3" /></filter><clipPath
       clipPathUnits="userSpaceOnUse"
       id="clipPath3"><rect
         style="fill:#1b1b1b;fill-opacity:1;stroke:none;stroke-width:3;stroke-linecap:round;stroke-linejoin:round;stroke-miterlimit:100;stroke-dashoffset:349.228;paint-order:markers fill stroke"
         id="rect4"
         width="145.09322"
         height="157.56938"
         x="460.23199"
         y="-5.5449634" /></clipPath><clipPath
       clipPathUnits="userSpaceOnUse"
       id="clipPath8"><rect
         style="fill:#1b1b1b;fill-opacity:1;stroke:#f9f9f9;stroke-width:2;stroke-linecap:round;stroke-linejoin:round;stroke-miterlimit:100;stroke-dasharray:none;stroke-dashoffset:349.228;stroke-opacity:1;paint-order:markers fill stroke"
         id="rect8"
         width="154.03015"
         height="151.11255"
         x="531.80573"
         y="212.60449" /></clipPath><filter
       style="color-interpolation-filters:sRGB;"
       inkscape:label="Drop Shadow"
       id="filter24"
       x="-0.044324359"
       y="-0.073192085"
       width="1.0886487"
       height="1.1463842"><feFlood
         result="flood"
         in="SourceGraphic"
         flood-opacity="0.835294"
         flood-color="rgb(107,107,107)"
         id="feFlood23" /><feGaussianBlur
         result="blur"
         in="SourceGraphic"
         stdDeviation="5.635272"
         id="feGaussianBlur23" /><feOffset
         result="offset"
         in="blur"
         dx="0.000000"
         dy="0.000000"
         id="feOffset23" /><feComposite
         result="comp1"
         operator="in"
         in="flood"
         in2="offset"
         id="feComposite23" /><feComposite
         result="comp2"
         operator="over"
         in="SourceGraphic"
         in2="comp1"
         id="feComposite24" /></filter><clipPath
       clipPathUnits="userSpaceOnUse"
       id="clipPath28"><rect
         style="fill:#1b1b1b;fill-opacity:1;stroke:none;stroke-width:2;stroke-linecap:round;stroke-linejoin:round;stroke-miterlimit:100;stroke-dasharray:none;stroke-dashoffset:349.228;stroke-opacity:1;paint-order:markers fill stroke"
         id="rect28"
         width="74.869904"
         height="71.021446"
         x="718.59332"
         y="364.93512" /></clipPath><clipPath
       id="mageWhatsappFilled0"><path
         fill="#fff"
         d="M2.5 2.5h19v19h-19z"
         id="path2" /></clipPath><linearGradient
       id="logosWhatsappIcon0"
       x1="128.28715"
       x2="128.28715"
       y1="252.1304"
       y2="4.4420177"
       gradientTransform="scale(0.99775778,1.0022473)"
       gradientUnits="userSpaceOnUse"><stop
         offset="0%"
         stop-color="#1faf38"
         id="stop1-1" /><stop
         offset="100%"
         stop-color="#60d669"
         id="stop2-0" /></linearGradient><linearGradient
       id="logosWhatsappIcon1"
       x1="128.28643"
       x2="128.28643"
       y1="256.57286"
       y2="0"
       gradientTransform="scale(0.99776728,1.0022377)"
       gradientUnits="userSpaceOnUse"><stop
         offset="0%"
         stop-color="#f9f9f9"
         id="stop3-6" /><stop
         offset="100%"
         stop-color="#fff"
         id="stop4-1" /></linearGradient><mask
       id="ipSCheckOne0"><g
         fill="none"
         stroke-linejoin="round"
         stroke-width="4"
         id="g2"><path
           fill="#fff"
           stroke="#fff"
           d="M24 44a19.94 19.94 0 0 0 14.142-5.858A19.94 19.94 0 0 0 44 24a19.94 19.94 0 0 0-5.858-14.142A19.94 19.94 0 0 0 24 4A19.94 19.94 0 0 0 9.858 9.858A19.94 19.94 0 0 0 4 24a19.94 19.94 0 0 0 5.858 14.142A19.94 19.94 0 0 0 24 44Z"
           id="path1-9" /><path
           stroke="#000"
           stroke-linecap="round"
           d="m16 24l6 6l12-12"
           id="path2-1" /></g></mask><linearGradient
       inkscape:collect="always"
       xlink:href="#gradient_foot_left_layer_1"
       id="linearGradient44"
       gradientUnits="userSpaceOnUse"
       x1="23.18"
       y1="193.01"
       x2="64.31"
       y2="262.02" /><linearGradient
       inkscape:collect="always"
       xlink:href="#gradient_foot_right_layer_1"
       id="linearGradient45"
       gradientUnits="userSpaceOnUse"
       x1="151.5"
       y1="253.02"
       x2="192.94"
       y2="185.84" /><radialGradient
       inkscape:collect="always"
       xlink:href="#gradient_eyeball"
       id="radialGradient45"
       gradientUnits="userSpaceOnUse"
       gradientTransform="matrix(10.239439,-0.10723107,0.16419757,15.67914,86.49,51.41)"
       cx="0"
       cy="0"
       r="1" /><radialGradient
       inkscape:collect="always"
       xlink:href="#gradient_eyeball"
       id="radialGradient46"
       gradientUnits="userSpaceOnUse"
       gradientTransform="matrix(13.633269,-0.42844275,0.4925207,15.672263,118.06,51.41)"
       cx="0"
       cy="0"
       r="1" /><radialGradient
       inkscape:collect="always"
       xlink:href="#gradient_mandible_lower"
       id="radialGradient47"
       gradientUnits="userSpaceOnUse"
       gradientTransform="matrix(25.101425,-10.346061,7.2670121,17.631093,109.77,70.61)"
       cx="0"
       cy="0"
       r="1" /><radialGradient
       inkscape:collect="always"
       xlink:href="#gradient_mandible_lower"
       id="radialGradient48"
       gradientUnits="userSpaceOnUse"
       gradientTransform="matrix(25.101425,-10.346061,7.2670121,17.631093,109.77,70.61)"
       cx="0"
       cy="0"
       r="1" /><linearGradient
       inkscape:collect="always"
       xlink:href="#gradient_mandible_upper"
       id="linearGradient48"
       gradientUnits="userSpaceOnUse"
       x1="78.09"
       y1="69.26"
       x2="126.77"
       y2="68.88" /><linearGradient
       inkscape:collect="always"
       xlink:href="#gradient_mandible_upper"
       id="linearGradient49"
       gradientUnits="userSpaceOnUse"
       x1="78.09"
       y1="69.26"
       x2="126.77"
       y2="68.88" /></defs><g
     inkscape:label="Layer 1"
     inkscape:groupmode="layer"
     id="layer1"><image
       width="162.56001"
       height="162.56001"
       preserveAspectRatio="none"
       xlink:href="whatsapp-icon-6953525_1920.jpg"
       id="image1-72"
       x="730.25446"
       y="344.04279" /><rect
       style="fill:#1b1b1b;fill-opacity:1;stroke:none;stroke-width:2.99999;stroke-linecap:round;stroke-linejoin:round;stroke-miterlimit:100;stroke-dashoffset:349.228;paint-order:markers fill stroke"
       id="rect36"
       width="139.06636"
       height="139.06636"
       x="559.84552"
       y="349.23151" /><rect
       style="fill:#1b1b1b;fill-opacity:1;stroke:none;stroke-width:2.99999;stroke-linecap:round;stroke-linejoin:round;stroke-miterlimit:100;stroke-dashoffset:349.228;paint-order:markers fill stroke"
       id="rect5"
       width="139.06636"
       height="139.06636"
       x="501.57315"
       y="214.81656" /><image
       width="361.42084"
       height="203.2"
       preserveAspectRatio="none"
       xlink:href="20241116_025538.png"
       id="image1-7"
       x="352.12085"
       y="-28.716112"
       clip-path="url(#clipPath3)"
       inkscape:export-filename="session-id-john-schmidt.png"
       inkscape:export-xdpi="96"
       inkscape:export-ydpi="96" /><rect
       style="fill:#1b1b1b;fill-opacity:1;stroke:none;stroke-width:3;stroke-linecap:round;stroke-linejoin:round;stroke-miterlimit:100;stroke-dashoffset:349.228;paint-order:markers fill stroke;filter:url(#filter3)"
       id="rect1"
       width="15.517815"
       height="17.980959"
       x="490.33911"
       y="103.20578" /><rect
       style="fill:#1b1b1b;fill-opacity:1;stroke:none;stroke-width:3;stroke-linecap:round;stroke-linejoin:round;stroke-miterlimit:100;stroke-dashoffset:349.228;paint-order:markers fill stroke;filter:url(#filter2)"
       id="rect2"
       width="15.517815"
       height="17.980959"
       x="560.7851"
       y="103.69841" /><image
       width="508"
       height="338.66666"
       preserveAspectRatio="none"
       xlink:href="money-18554_1920.jpg"
       id="image1-4"
       x="669.68195"
       y="-38.300293"
       inkscape:export-filename="non-profit-business-model.png"
       inkscape:export-xdpi="96"
       inkscape:export-ydpi="96" /><text
       xml:space="preserve"
       style="font-weight:600;font-size:187.114px;line-height:205.795px;font-family:Poppins;-inkscape-font-specification:'Poppins Semi-Bold';text-align:center;letter-spacing:-0.350839px;writing-mode:lr-tb;direction:ltr;text-anchor:middle;opacity:1;fill:#ff0000;fill-opacity:1;stroke:#ffffff;stroke-width:3;stroke-linecap:round;stroke-linejoin:round;stroke-miterlimit:100;stroke-dasharray:none;stroke-dashoffset:349.228;stroke-opacity:1;paint-order:markers fill stroke;filter:url(#filter5)"
       x="1078.6576"
       y="124.84262"
       id="text4"><tspan
         sodipodi:role="line"
         id="tspan4"
         style="fill:#ff0000;fill-opacity:1;stroke:#ffffff;stroke-width:3;stroke-dasharray:none;stroke-opacity:1;paint-order:markers fill stroke"
         x="1078.4822"
         y="124.84262">тип</tspan></text><g
       id="g4"
       transform="matrix(0.26458333,0,0,0.26458333,530.50402,257.25247)"
       style="stroke:#f9f9f9;stroke-width:7.55905522;stroke-dasharray:none;stroke-opacity:1"><g
         transform="translate(-92,-63.999774)"
         id="layer3"
         style="display:inline;stroke:#f9f9f9;stroke-width:7.55905522;stroke-dasharray:none;stroke-opacity:1"><g
           id="layer5"
           style="stroke:#f9f9f9;stroke-width:7.55905522;stroke-dasharray:none;stroke-opacity:1"><path
             d="m 264.513,77.977773 -4.917,19.529001 c 6.965,-13.793001 18.027,-24.172001 30.729,-33.323001 -9.287,10.789 -17.754,21.579001 -22.944,32.368001 8.741,-12.292001 20.486,-19.120001 33.733,-23.627001 -17.618,15.706001 -31.60228,32.559277 -42.25528,49.494277 l -8.467,-3.687 c 1.501,-13.521 6.60928,-27.369276 14.12128,-40.754277 z"
             id="path2554"
             style="fill:#abcd03;stroke:#f9f9f9;stroke-width:7.55905522;stroke-dasharray:none;stroke-opacity:1" /><path
             d="m 241.90113,115.14152 16.116,6.68594 c 0,4.098 -0.33313,16.59703 2.22938,20.28403 26.80289,34.5191 22.29349,103.71329 -5.42951,105.48829 -42.21656,0 -58.317,-28.679 -58.317,-55.03801 0,-24.037 28.816,-40.016 46.025,-54.219 4.37,-3.824 3.61113,-12.27525 -0.62387,-23.20125 z"
             id="path2534"
             style="fill:#fffcdb;stroke:#f9f9f9;stroke-width:7.55905522;stroke-dasharray:none;stroke-opacity:1" /><path
             d="m 258.02197,121.58695 5.80803,2.96282 c -0.546,3.823 0.273,12.292 4.096,14.476 16.936,10.516 32.914,21.988 39.197,33.46 22.398,40.42601 -15.706,77.84601 -48.62,74.29501 17.891,-13.248 23.081,-40.42501 16.389,-70.06201 -2.731,-11.609 -6.966,-22.125 -14.478,-34.007 -3.25421,-5.83246 -2.11803,-13.06582 -2.39203,-21.12482 z"
             id="path2536"
             style="fill:#7d4698;stroke:#f9f9f9;stroke-width:7.55905522;stroke-dasharray:none;stroke-opacity:1" /></g><g
           id="layer4"
           style="display:inline;stroke:#f9f9f9;stroke-width:7.55905522;stroke-dasharray:none;stroke-opacity:1"><path
             d="m 255.226,120.58877 12.018,1.639 c -3.551,11.745 6.966,19.939 10.38,21.852 7.64801,4.234 15.02301,8.604 20.89601,13.93 11.063,10.106 17.345,24.31 17.345,39.333 0,14.886 -6.829,29.226 -18.301,38.786 -10.789,9.014 -25.67501,12.838 -40.15201,12.838 -9.014,0 -17.072,-0.409 -25.812,-3.278 -19.939,-6.692 -34.826,-23.763 -36.055,-44.25 -1.093,-15.979 2.458,-28.134 14.887,-40.835 6.418,-6.692 19.393,-14.34 28.271,-20.486 4.371,-3.005 9.014,-11.473 0.136,-27.451 l 1.776,-1.366 13.15659,8.81203 -11.10759,-4.57803 c 0.956,1.366 3.551,7.512 4.098,9.287 1.229,5.053 0.683,9.971 -0.41,12.155 -5.599,10.107 -15.159,12.838 -22.124,18.574 -12.292,10.106 -25.676,18.164 -24.174,45.888 0.683,13.657 11.336,30.319 27.314,38.104 9.014,4.371 19.394,6.146 29.91,6.692 9.423,0.41 27.45101,-5.19 37.28401,-13.384 10.516,-8.74 16.389,-21.988 16.389,-35.508 0,-13.658 -5.463,-26.632 -15.706,-35.783 -5.873,-5.326 -15.56901,-11.745 -21.57801,-15.16 -6.009,-3.414 -13.521,-12.974 -11.063,-22.124 z"
             id="path2538"
             style="stroke:#f9f9f9;stroke-width:7.55905522;stroke-dasharray:none;stroke-opacity:1" /><path
             d="m 251.539,140.80177 c -1.229,6.283 -2.595,17.618 -8.058,21.852 -2.322,1.638 -4.644,3.278 -7.102,4.916 -9.833,6.693 -19.667,12.974 -24.173,29.09 -0.956,3.415 -0.136,7.102 0.684,10.516 2.458,9.833 9.423,20.486 14.886,26.769 0,0.273 1.093,0.956 1.093,1.229 4.507,5.327 5.873,6.829 22.944,10.652 l -0.41,1.913 c -10.243,-2.731 -18.71,-5.189 -24.037,-11.336 0,-0.136 -0.956,-1.093 -0.956,-1.093 -5.736,-6.556 -12.702,-17.481 -15.296,-27.724 -0.956,-4.098 -1.775,-7.238 -0.683,-11.473 4.643,-16.661 14.75,-23.217 24.993,-30.182 2.322,-1.502 5.053,-2.869 7.238,-4.644 4.233,-3.14 6.554,-12.701 8.877,-20.485 z"
             id="path2540"
             style="stroke:#f9f9f9;stroke-width:7.55905522;stroke-dasharray:none;stroke-opacity:1" /><path
             d="m 255.90625,166.74951 c 0.137,7.102 -0.55625,10.66475 1.21875,15.71875 1.092,3.004 4.782,7.1015 5.875,11.0625 1.502,5.327 3.138,11.19901 3,14.75001 0,4.09799 -0.25625,11.74249 -2.03125,19.93749 -1.35362,6.77108 -4.47323,12.58153 -9.71875,15.875 -5.37327,-1.10644 -11.68224,-2.99521 -15.40625,-6.1875 -7.238,-6.282 -13.64875,-16.7865 -14.46875,-25.9375 -0.682,-7.51099 6.27275,-18.5885 15.96875,-24.1875 8.194,-4.78 10.1,-10.22775 11.875,-18.96875 -2.458,7.648 -4.7665,14.05925 -12.6875,18.15625 -11.472,6.009 -17.3585,16.09626 -16.8125,25.65625 0.819,12.291 5.7415,20.6195 15.4375,27.3125 4.097,2.868 11.75125,5.89875 16.53125,6.71875 v -0.625 c 3.62493,-0.67888 8.31818,-6.63267 10.65625,-14.6875 2.049,-7.238 2.85675,-16.502 2.71875,-22.37499 -0.137,-3.414 -1.643,-10.80801 -4.375,-17.50001 -1.502,-3.687 -3.8095,-7.37375 -5.3125,-9.96875 -1.637,-2.597 -1.64875,-8.195 -2.46875,-14.75 z"
             id="path2542"
             style="stroke:#f9f9f9;stroke-width:7.55905522;stroke-dasharray:none;stroke-opacity:1" /><path
             d="m 255.09375,193.53076 c 0.136,4.78 2.056,10.90451 2.875,17.18751 0.684,4.64399 0.387,9.30824 0.25,13.40624 -0.13495,4.74323 -1.7152,13.24218 -3.875,17.375 -2.03673,-0.93403 -2.83294,-1.99922 -4.15625,-3.71875 -1.638,-2.322 -2.75075,-4.644 -3.84375,-7.375 -0.819,-2.049 -1.7765,-4.394 -2.1875,-7.125 -0.546,-4.097 -0.393,-10.5065 4.25,-17.06249 3.551,-5.19001 4.36475,-5.58476 5.59375,-11.59376 -1.64,5.326 -2.8625,5.869 -6.6875,10.37501 -4.233,4.917 -4.9375,12.15924 -4.9375,18.03124 0,2.459 0.9805,5.18725 1.9375,7.78125 1.092,2.732 2.02925,5.452 3.53125,7.5 2.25796,3.32082 5.14798,5.20922 6.5625,5.5625 0.009,0.002 0.022,-0.002 0.0312,0 0.0303,0.007 0.0649,0.0255 0.0937,0.0312 v -0.15625 c 2.64982,-2.95437 4.24444,-5.88934 4.78125,-8.84375 0.683,-3.551 0.84,-7.10975 1.25,-11.34375 0.409,-3.551 0.11225,-8.334 -0.84375,-13.24999 -1.365,-6.146 -3.669,-12.41226 -4.625,-16.78126 z"
             id="path2544"
             style="stroke:#f9f9f9;stroke-width:7.55905522;stroke-dasharray:none;stroke-opacity:1" /><path
             d="m 255.499,135.06577 c 0.137,7.101 0.683,20.35 2.595,25.539 0.546,1.775 5.599,9.56 9.149,18.983 2.459,6.556 3.005,12.565 3.415,14.34 1.639,7.785 -0.41,20.896 -3.142,33.324 -1.365,6.692 -6.009,15.023 -11.335,18.301 l -1.092,1.912 c 3.005,-0.137 10.379,-7.375 12.974,-16.389 4.371,-15.296 6.146,-22.398 4.098,-39.333 -0.273,-1.64 -0.956,-7.238 -3.551,-13.248 -3.824,-9.151 -9.287,-17.891 -9.969,-19.667 -1.23,-2.867 -2.869,-15.295 -3.142,-23.762 z"
             id="path2550"
             style="stroke:#f9f9f9;stroke-width:7.55905522;stroke-dasharray:none;stroke-opacity:1" /><path
             d="m 258.06151,125.35303 c -0.40515,7.29812 -0.51351,9.98574 0.85149,15.31174 1.502,5.873 9.151,14.34 12.292,24.037 6.009,18.574 4.507,42.884 0.136,61.867 -1.638,6.691 -9.424,16.389 -17.208,19.529 l 5.736,1.366 c 3.141,-0.137 11.198,-7.648 14.34,-16.252 5.052,-13.521 6.009,-29.636 3.96,-46.571 -0.137,-1.639 -2.869,-16.252 -5.463,-22.398 -3.688,-9.15 -10.244,-17.345 -10.926,-19.119 -1.228,-3.005 -3.92651,-9.24362 -3.71849,-17.77074 z"
             id="path2552"
             style="stroke:#f9f9f9;stroke-width:7.55905522;stroke-dasharray:none;stroke-opacity:1" /><rect
             width="0.550412"
             height="126.01891"
             x="253.71959"
             y="120.21686"
             id="rect2556"
             style="stroke:#f9f9f9;stroke-width:7.55905522;stroke-dasharray:none;stroke-opacity:1" /></g></g><path
         d="M 7.9430002,18.074997 H 117.611 c 4.096,0 7.647,3.414 7.647,7.648 v 32.367 c 0,4.234 -3.551,7.649 -7.647,7.649 H 95.077 c -5.054,0 -7.239,2.867 -7.239,6.145 V 177.86401 c 0,3.551 -2.868,6.282 -6.282,6.282 H 44.272 c -3.415,0 -6.146,-2.731 -6.146,-6.282 V 70.928997 c 0,-3.278 -3.005,-5.189 -5.326,-5.189 H 7.9430002 c -4.234,0 -7.64799997,-3.415 -7.64799997,-7.649 v -32.368 c -0.001,-4.234 3.41299997,-7.648 7.64799997,-7.648 z"
         id="path2528"
         style="fill:#7d4698;stroke:#f9f9f9;stroke-width:7.55905522;stroke-dasharray:none;stroke-opacity:1" /><path
         d="m 289.30687,60.958997 h 9.696 c 3.551,0 6.419,2.868 6.419,6.282 V 101.931 c 0,4.507 0.273,6.282 -5.19,6.282 -10.789,0 -15.705,5.736 -15.705,12.018 v 58.58901 c 0,2.732 -2.595,5.053 -5.736,5.053 h -34.827 c -3.141,0 -5.736,-2.321 -5.736,-5.053 V 112.036 c -0.0378,-1.17441 -0.0148,-2.9081 0.137,-3.823 1.912,-24.720003 21.30753,-44.497863 45.888,-46.981003 0.82399,-0.0832 3.73943,-0.273 5.054,-0.273 z"
         id="path2532"
         style="fill:#7d4698;stroke:#f9f9f9;stroke-width:7.55905522;stroke-dasharray:none;stroke-opacity:1" /></g><image
       width="361.42084"
       height="203.2"
       preserveAspectRatio="none"
       xlink:href="20241116_031514.png"
       id="image1-6"
       x="428.09583"
       y="187.06042"
       clip-path="url(#clipPath8)"
       transform="translate(-191.34415,-8.9832935)"
       inkscape:export-filename="get-session-tor-path-secure-messaging-3.png"
       inkscape:export-xdpi="164.9028"
       inkscape:export-ydpi="164.9028" /><g
       id="g18"
       transform="matrix(0.08835933,0,0,0.08534856,352.77551,325.66978)"
       style="stroke:none;stroke-width:23.0306;stroke-dasharray:none;stroke-opacity:1;filter:url(#filter24)"><g
         transform="translate(-92,-63.999774)"
         id="g17"
         style="display:inline;stroke:none;stroke-width:23.0306;stroke-dasharray:none;stroke-opacity:1"><g
           id="g10"
           style="stroke:none;stroke-width:23.0306;stroke-dasharray:none;stroke-opacity:1"><path
             d="m 264.513,77.977773 -4.917,19.529001 c 6.965,-13.793001 18.027,-24.172001 30.729,-33.323001 -9.287,10.789 -17.754,21.579001 -22.944,32.368001 8.741,-12.292001 20.486,-19.120001 33.733,-23.627001 -17.618,15.706001 -31.60228,32.559277 -42.25528,49.494277 l -8.467,-3.687 c 1.501,-13.521 6.60928,-27.369276 14.12128,-40.754277 z"
             id="path8"
             style="fill:#abcd03;stroke:none;stroke-width:23.0306;stroke-dasharray:none;stroke-opacity:1" /><path
             d="m 241.90113,115.14152 16.116,6.68594 c 0,4.098 -0.33313,16.59703 2.22938,20.28403 26.80289,34.5191 22.29349,103.71329 -5.42951,105.48829 -42.21656,0 -58.317,-28.679 -58.317,-55.03801 0,-24.037 28.816,-40.016 46.025,-54.219 4.37,-3.824 3.61113,-12.27525 -0.62387,-23.20125 z"
             id="path9"
             style="fill:#fffcdb;stroke:none;stroke-width:23.0306;stroke-dasharray:none;stroke-opacity:1" /><path
             d="m 258.02197,121.58695 5.80803,2.96282 c -0.546,3.823 0.273,12.292 4.096,14.476 16.936,10.516 32.914,21.988 39.197,33.46 22.398,40.42601 -15.706,77.84601 -48.62,74.29501 17.891,-13.248 23.081,-40.42501 16.389,-70.06201 -2.731,-11.609 -6.966,-22.125 -14.478,-34.007 -3.25421,-5.83246 -2.11803,-13.06582 -2.39203,-21.12482 z"
             id="path10"
             style="fill:#7d4698;stroke:none;stroke-width:23.0306;stroke-dasharray:none;stroke-opacity:1" /></g><g
           id="g16"
           style="display:inline;stroke:none;stroke-width:23.0306;stroke-dasharray:none;stroke-opacity:1"><path
             d="m 255.226,120.58877 12.018,1.639 c -3.551,11.745 6.966,19.939 10.38,21.852 7.64801,4.234 15.02301,8.604 20.89601,13.93 11.063,10.106 17.345,24.31 17.345,39.333 0,14.886 -6.829,29.226 -18.301,38.786 -10.789,9.014 -25.67501,12.838 -40.15201,12.838 -9.014,0 -17.072,-0.409 -25.812,-3.278 -19.939,-6.692 -34.826,-23.763 -36.055,-44.25 -1.093,-15.979 2.458,-28.134 14.887,-40.835 6.418,-6.692 19.393,-14.34 28.271,-20.486 4.371,-3.005 9.014,-11.473 0.136,-27.451 l 1.776,-1.366 13.15659,8.81203 -11.10759,-4.57803 c 0.956,1.366 3.551,7.512 4.098,9.287 1.229,5.053 0.683,9.971 -0.41,12.155 -5.599,10.107 -15.159,12.838 -22.124,18.574 -12.292,10.106 -25.676,18.164 -24.174,45.888 0.683,13.657 11.336,30.319 27.314,38.104 9.014,4.371 19.394,6.146 29.91,6.692 9.423,0.41 27.45101,-5.19 37.28401,-13.384 10.516,-8.74 16.389,-21.988 16.389,-35.508 0,-13.658 -5.463,-26.632 -15.706,-35.783 -5.873,-5.326 -15.56901,-11.745 -21.57801,-15.16 -6.009,-3.414 -13.521,-12.974 -11.063,-22.124 z"
             id="path11"
             style="stroke:none;stroke-width:23.0306;stroke-dasharray:none;stroke-opacity:1" /><path
             d="m 251.539,140.80177 c -1.229,6.283 -2.595,17.618 -8.058,21.852 -2.322,1.638 -4.644,3.278 -7.102,4.916 -9.833,6.693 -19.667,12.974 -24.173,29.09 -0.956,3.415 -0.136,7.102 0.684,10.516 2.458,9.833 9.423,20.486 14.886,26.769 0,0.273 1.093,0.956 1.093,1.229 4.507,5.327 5.873,6.829 22.944,10.652 l -0.41,1.913 c -10.243,-2.731 -18.71,-5.189 -24.037,-11.336 0,-0.136 -0.956,-1.093 -0.956,-1.093 -5.736,-6.556 -12.702,-17.481 -15.296,-27.724 -0.956,-4.098 -1.775,-7.238 -0.683,-11.473 4.643,-16.661 14.75,-23.217 24.993,-30.182 2.322,-1.502 5.053,-2.869 7.238,-4.644 4.233,-3.14 6.554,-12.701 8.877,-20.485 z"
             id="path12"
             style="stroke:none;stroke-width:23.0306;stroke-dasharray:none;stroke-opacity:1" /><path
             d="m 255.90625,166.74951 c 0.137,7.102 -0.55625,10.66475 1.21875,15.71875 1.092,3.004 4.782,7.1015 5.875,11.0625 1.502,5.327 3.138,11.19901 3,14.75001 0,4.09799 -0.25625,11.74249 -2.03125,19.93749 -1.35362,6.77108 -4.47323,12.58153 -9.71875,15.875 -5.37327,-1.10644 -11.68224,-2.99521 -15.40625,-6.1875 -7.238,-6.282 -13.64875,-16.7865 -14.46875,-25.9375 -0.682,-7.51099 6.27275,-18.5885 15.96875,-24.1875 8.194,-4.78 10.1,-10.22775 11.875,-18.96875 -2.458,7.648 -4.7665,14.05925 -12.6875,18.15625 -11.472,6.009 -17.3585,16.09626 -16.8125,25.65625 0.819,12.291 5.7415,20.6195 15.4375,27.3125 4.097,2.868 11.75125,5.89875 16.53125,6.71875 v -0.625 c 3.62493,-0.67888 8.31818,-6.63267 10.65625,-14.6875 2.049,-7.238 2.85675,-16.502 2.71875,-22.37499 -0.137,-3.414 -1.643,-10.80801 -4.375,-17.50001 -1.502,-3.687 -3.8095,-7.37375 -5.3125,-9.96875 -1.637,-2.597 -1.64875,-8.195 -2.46875,-14.75 z"
             id="path13"
             style="stroke:none;stroke-width:23.0306;stroke-dasharray:none;stroke-opacity:1" /><path
             d="m 255.09375,193.53076 c 0.136,4.78 2.056,10.90451 2.875,17.18751 0.684,4.64399 0.387,9.30824 0.25,13.40624 -0.13495,4.74323 -1.7152,13.24218 -3.875,17.375 -2.03673,-0.93403 -2.83294,-1.99922 -4.15625,-3.71875 -1.638,-2.322 -2.75075,-4.644 -3.84375,-7.375 -0.819,-2.049 -1.7765,-4.394 -2.1875,-7.125 -0.546,-4.097 -0.393,-10.5065 4.25,-17.06249 3.551,-5.19001 4.36475,-5.58476 5.59375,-11.59376 -1.64,5.326 -2.8625,5.869 -6.6875,10.37501 -4.233,4.917 -4.9375,12.15924 -4.9375,18.03124 0,2.459 0.9805,5.18725 1.9375,7.78125 1.092,2.732 2.02925,5.452 3.53125,7.5 2.25796,3.32082 5.14798,5.20922 6.5625,5.5625 0.009,0.002 0.022,-0.002 0.0312,0 0.0303,0.007 0.0649,0.0255 0.0937,0.0312 v -0.15625 c 2.64982,-2.95437 4.24444,-5.88934 4.78125,-8.84375 0.683,-3.551 0.84,-7.10975 1.25,-11.34375 0.409,-3.551 0.11225,-8.334 -0.84375,-13.24999 -1.365,-6.146 -3.669,-12.41226 -4.625,-16.78126 z"
             id="path14"
             style="stroke:none;stroke-width:23.0306;stroke-dasharray:none;stroke-opacity:1" /><path
             d="m 255.499,135.06577 c 0.137,7.101 0.683,20.35 2.595,25.539 0.546,1.775 5.599,9.56 9.149,18.983 2.459,6.556 3.005,12.565 3.415,14.34 1.639,7.785 -0.41,20.896 -3.142,33.324 -1.365,6.692 -6.009,15.023 -11.335,18.301 l -1.092,1.912 c 3.005,-0.137 10.379,-7.375 12.974,-16.389 4.371,-15.296 6.146,-22.398 4.098,-39.333 -0.273,-1.64 -0.956,-7.238 -3.551,-13.248 -3.824,-9.151 -9.287,-17.891 -9.969,-19.667 -1.23,-2.867 -2.869,-15.295 -3.142,-23.762 z"
             id="path15"
             style="stroke:none;stroke-width:23.0306;stroke-dasharray:none;stroke-opacity:1" /><path
             d="m 258.06151,125.35303 c -0.40515,7.29812 -0.51351,9.98574 0.85149,15.31174 1.502,5.873 9.151,14.34 12.292,24.037 6.009,18.574 4.507,42.884 0.136,61.867 -1.638,6.691 -9.424,16.389 -17.208,19.529 l 5.736,1.366 c 3.141,-0.137 11.198,-7.648 14.34,-16.252 5.052,-13.521 6.009,-29.636 3.96,-46.571 -0.137,-1.639 -2.869,-16.252 -5.463,-22.398 -3.688,-9.15 -10.244,-17.345 -10.926,-19.119 -1.228,-3.005 -3.92651,-9.24362 -3.71849,-17.77074 z"
             id="path16"
             style="stroke:none;stroke-width:23.0306;stroke-dasharray:none;stroke-opacity:1" /><rect
             width="0.550412"
             height="126.01891"
             x="253.71959"
             y="120.21686"
             id="rect16"
             style="stroke:none;stroke-width:23.0306;stroke-dasharray:none;stroke-opacity:1" /></g></g><path
         d="M 7.9430002,18.074997 H 117.611 c 4.096,0 7.647,3.414 7.647,7.648 v 32.367 c 0,4.234 -3.551,7.649 -7.647,7.649 H 95.077 c -5.054,0 -7.239,2.867 -7.239,6.145 V 177.86401 c 0,3.551 -2.868,6.282 -6.282,6.282 H 44.272 c -3.415,0 -6.146,-2.731 -6.146,-6.282 V 70.928997 c 0,-3.278 -3.005,-5.189 -5.326,-5.189 H 7.9430002 c -4.234,0 -7.64799997,-3.415 -7.64799997,-7.649 v -32.368 c -0.001,-4.234 3.41299997,-7.648 7.64799997,-7.648 z"
         id="path17"
         style="fill:#7d4698;stroke:none;stroke-width:23.0306;stroke-dasharray:none;stroke-opacity:1" /><path
         d="m 289.30687,60.958997 h 9.696 c 3.551,0 6.419,2.868 6.419,6.282 V 101.931 c 0,4.507 0.273,6.282 -5.19,6.282 -10.789,0 -15.705,5.736 -15.705,12.018 v 58.58901 c 0,2.732 -2.595,5.053 -5.736,5.053 h -34.827 c -3.141,0 -5.736,-2.321 -5.736,-5.053 V 112.036 c -0.0378,-1.17441 -0.0148,-2.9081 0.137,-3.823 1.912,-24.720003 21.30753,-44.497863 45.888,-46.981003 0.82399,-0.0832 3.73943,-0.273 5.054,-0.273 z"
         id="path18"
         style="fill:#7d4698;stroke:none;stroke-width:23.0306;stroke-dasharray:none;stroke-opacity:1" /></g><path
       style="fill:#1b1b1b;fill-opacity:1;stroke:none;stroke-width:7.55904;stroke-linecap:round;stroke-linejoin:round;stroke-miterlimit:100;stroke-dasharray:none;stroke-dashoffset:349.228;stroke-opacity:1;paint-order:markers fill stroke"
       d=""
       id="path24"
       transform="scale(0.26458333)" /><image
       width="141.77066"
       height="117.26056"
       preserveAspectRatio="none"
       xlink:href="proxy-image.png"
       id="image1-8"
       x="684.9848"
       y="347.32602"
       style="stroke-width:1.00795"
       clip-path="url(#clipPath28)"
       transform="matrix(1.4886554,0,0,1.4886554,-145.58079,-177.36118)" /><image
       width="232.72478"
       height="130.9077"
       preserveAspectRatio="none"
       xlink:href="abstract-5719221_1280.jpg"
       id="image1-9"
       x="297.86963"
       y="387.69763"
       style="stroke-width:1.45522"
       inkscape:export-filename="banner-image.png"
       inkscape:export-xdpi="164.9028"
       inkscape:export-ydpi="164.9028" /><rect
       style="opacity:0.589463;mix-blend-mode:color-burn;fill:#312f30;fill-opacity:1;stroke:none;stroke-width:2.99999;stroke-linecap:round;stroke-linejoin:round;stroke-miterlimit:100;stroke-dashoffset:349.228;paint-order:markers fill stroke"
       id="rect42"
       width="232.72501"
       height="130.908"
       x="297.86963"
       y="387.69763" /><path
       style="fill:#00f782;fill-opacity:1;stroke:none;stroke-width:2;stroke-linecap:round;stroke-linejoin:round;stroke-miterlimit:100;stroke-dasharray:none;stroke-dashoffset:349.228;stroke-opacity:1;paint-order:markers fill stroke"
       d="m 431.93934,474.97875 c -0.7253,-0.2605 -1.5977,-0.7397 -1.959,-1.0762 -0.3581,-0.3337 -0.7692,-0.7137 -0.9134,-0.8443 -0.4872,-0.4416 -1.3349,-2.3823 -1.4989,-3.4313 -0.3488,-2.2313 0.6511,-4.7451 2.4326,-6.116 1.7421,-1.3404 2.0924,-1.4352 5.6467,-1.5278 2.2331,-0.058 3.1307,-0.144 3.081,-0.2947 -0.039,-0.117 -0.6966,-0.5511 -1.4624,-0.9646 -5.2023,-2.8094 -6.2913,-3.5097 -7.4821,-4.8116 -1.7033,-1.8625 -2.586,-4.8386 -2.1633,-7.2949 0.5765,-3.35 2.7219,-5.7619 6.1892,-6.9581 0.5979,-0.2063 2.6009,-0.2589 9.8501,-0.2589 h 9.0996 l 1.3561,0.6355 c 5.0667,2.3749 5.347,9.1162 0.4973,11.9583 -1.3087,0.767 -2.5515,1.0039 -5.2774,1.0064 -1.3673,0 -2.486,0.071 -2.486,0.1551 0,0.084 0.2743,0.294 0.6097,0.4664 0.3354,0.1725 1.2008,0.6368 1.9231,1.0318 4.9503,2.7072 5.5951,3.1624 6.9099,4.8784 1.0645,1.3893 1.8146,3.5929 1.8146,5.3311 0,3.4902 -2.3353,6.8637 -5.5901,8.0752 -1.0285,0.3829 -1.4278,0.4007 -10.1701,0.4541 l -9.0996,0.055 z m 18.2973,-1.3992 c 2.5545,-0.3696 4.3487,-1.6179 5.4562,-3.796 0.5411,-1.0643 0.5992,-1.3414 0.6013,-2.8668 0,-1.4471 -0.074,-1.8631 -0.5308,-2.9081 -0.5962,-1.364 -2.2354,-3.2148 -3.1759,-3.5859 -0.3181,-0.1256 -0.7051,-0.3303 -0.8599,-0.4549 -0.1548,-0.1245 -0.788,-0.5005 -1.4072,-0.8356 -0.6191,-0.3351 -1.8533,-1.0214 -2.7427,-1.5251 -0.8894,-0.5037 -1.6792,-0.9158 -1.7552,-0.9158 -0.075,0 -0.5135,-0.2532 -0.9721,-0.5628 -0.4587,-0.3096 -0.9143,-0.5629 -1.0123,-0.5629 -0.1066,0 -0.1782,1.5197 -0.1782,3.7845 0,3.2583 -0.043,3.8323 -0.3105,4.1277 -0.2859,0.316 -0.7039,0.3432 -5.2785,0.3432 -3.3237,0 -5.217,0.074 -5.7201,0.2253 -1.0076,0.3018 -2.4594,1.7909 -2.8425,2.9153 -0.4402,1.292 -0.3797,2.6205 0.1692,3.7176 0.8432,1.685 1.7805,2.4079 3.6633,2.8254 1.2676,0.2811 15.0489,0.3421 16.8959,0.076 z m -8.2654,-16.194 c 0,-2.7121 0.064,-3.8734 0.2252,-4.0338 0.1639,-0.1639 1.594,-0.2251 5.2594,-0.2251 5.5099,0 5.7042,-0.031 7.1107,-1.1453 1.719,-1.3615 2.2725,-4.081 1.2375,-6.0807 -0.5359,-1.0354 -0.9783,-1.4914 -2.1065,-2.1717 l -0.7504,-0.4525 h -9.2934 c -8.821,0 -9.3358,0.019 -10.1315,0.3679 -1.5193,0.6668 -2.3985,1.398 -3.2447,2.6984 -1.4315,2.2003 -1.413,4.8638 0.051,7.4237 0.6448,1.127 1.8409,2.2058 3.3601,3.0307 0.5823,0.3162 1.7336,0.9391 2.5585,1.3843 1.7218,0.9294 4.3279,2.3997 4.8793,2.7529 0.8294,0.5312 0.8443,0.4686 0.8443,-3.5488 z"
       id="path35" /><g
       id="g36"
       transform="matrix(0.1325186,0,0,0.1325186,372.85834,441.48315)"
       style="stroke-width:0.998284"><path
         fill="url(#logosWhatsappIcon0)"
         d="m 5.463,127.456 c -0.006,21.677 5.658,42.843 16.428,61.499 L 4.433,252.697 69.665,235.593 a 123,123 0 0 0 58.8,14.97 h 0.054 c 67.815,0 123.018,-55.183 123.047,-123.01 C 251.579,94.686 238.791,63.78 215.557,40.528 192.327,17.278 161.432,4.467 128.514,4.452 60.691,4.452 5.492,59.632 5.464,127.456"
         id="path4"
         style="fill:url(#logosWhatsappIcon0);stroke-width:0.998284" /><path
         fill="url(#logosWhatsappIcon1)"
         d="m 1.07,127.416 c -0.007,22.457 5.86,44.38 17.014,63.704 L 0,257.147 67.571,239.43 c 18.618,10.151 39.58,15.503 60.91,15.511 h 0.055 C 198.784,254.941 255.97,197.773 256,127.518 256.012,93.47 242.764,61.453 218.7,37.368 194.633,13.286 162.633,0.014 128.536,0 58.276,0 1.099,57.16 1.071,127.416 m 40.24,60.376 -2.523,-4.005 C 28.182,166.923 22.584,147.435 22.592,127.424 22.614,69.029 70.138,21.52 128.576,21.52 c 28.3,0.012 54.896,11.044 74.9,31.06 20.003,20.018 31.01,46.628 31.003,74.93 -0.026,58.395 -47.551,105.91 -105.943,105.91 h -0.042 c -19.013,-0.01 -37.66,-5.116 -53.922,-14.765 l -3.87,-2.295 -40.098,10.513 z"
         id="path5"
         style="fill:url(#logosWhatsappIcon1);stroke-width:0.998284" /><path
         fill="#ffffff"
         d="m 96.678,74.148 c -2.386,-5.303 -4.897,-5.41 -7.166,-5.503 -1.858,-0.08 -3.982,-0.074 -6.104,-0.074 -2.124,0 -5.575,0.799 -8.492,3.984 -2.92,3.188 -11.148,10.892 -11.148,26.561 0,15.669 11.413,30.813 13.004,32.94 1.593,2.123 22.033,35.307 54.405,48.073 26.904,10.609 32.379,8.499 38.218,7.967 5.84,-0.53 18.844,-7.702 21.497,-15.139 2.655,-7.436 2.655,-13.81 1.859,-15.142 -0.796,-1.327 -2.92,-2.124 -6.105,-3.716 -3.185,-1.592 -18.844,-9.298 -21.763,-10.361 -2.92,-1.062 -5.043,-1.592 -7.167,1.597 -2.124,3.184 -8.223,10.356 -10.082,12.48 -1.857,2.129 -3.716,2.394 -6.9,0.801 -3.187,-1.598 -13.444,-4.957 -25.613,-15.806 -9.468,-8.442 -15.86,-18.867 -17.718,-22.056 -1.858,-3.184 -0.199,-4.91 1.398,-6.497 1.431,-1.427 3.186,-3.719 4.78,-5.578 1.588,-1.86 2.118,-3.187 3.18,-5.311 1.063,-2.126 0.531,-3.986 -0.264,-5.579 -0.798,-1.593 -6.987,-17.343 -9.819,-23.64"
         id="path6-5"
         style="stroke-width:0.998284" /></g><g
       id="g38"
       transform="matrix(1.202078,0,0,1.202078,-337.95786,-49.546405)"
       style="stroke-width:0.831893"><circle
         style="fill:#ffffff;fill-opacity:1;stroke:none;stroke-width:3.32757;stroke-linecap:round;stroke-linejoin:round;stroke-miterlimit:100;stroke-dasharray:none;stroke-dashoffset:349.228;stroke-opacity:1;paint-order:markers fill stroke"
         id="path37"
         cx="649.03107"
         cy="445.96027"
         r="4.5716071" /><path
         fill="#000000"
         d="M 0,0 H 48 V 48 H 0 Z"
         mask="url(#ipSCheckOne0)"
         id="path3"
         transform="matrix(0.1755497,0,0,0.1755497,644.81904,441.78287)"
         style="fill:#8ac700;fill-opacity:1;stroke:#ffffff;stroke-width:3.36928;stroke-dasharray:none;stroke-opacity:1" /></g><g
       id="g37"
       transform="matrix(0.90716467,0,0,0.90716467,-161.78426,82.945145)"
       style="stroke-width:1.10234"><rect
         style="fill:#ffffff;fill-opacity:1;stroke:none;stroke-width:4.40934;stroke-linecap:round;stroke-linejoin:round;stroke-miterlimit:100;stroke-dasharray:none;stroke-dashoffset:349.228;stroke-opacity:1;paint-order:markers fill stroke"
         id="rect37"
         width="10.929767"
         height="10.731605"
         x="600.59662"
         y="440.17841"
         ry="1.6914947" /><path
         fill="#000000"
         d="m 609.13276,440.901 h -6.14253 c -0.84829,0 -1.53563,0.6875 -1.53563,1.53563 v 6.14253 c 0,0.84813 0.6875,1.53563 1.53563,1.53563 h 6.14253 c 0.84812,0 1.53563,-0.6875 1.53563,-1.53563 v -6.14253 c 0,-0.84813 -0.68751,-1.53563 -1.53563,-1.53563 m -0.30743,6.26522 -1.10551,1.10581 -1.65863,-1.65864 -1.65818,1.65864 -1.10581,-1.10581 1.65848,-1.65833 -1.65848,-1.65864 1.10581,-1.1055 1.65818,1.65833 1.65863,-1.65833 1.10551,1.1055 -1.65834,1.65864 z"
         id="path1-0"
         style="fill:#dc0000;stroke:none;stroke-width:0.587545;stroke-dasharray:none;stroke-opacity:1" /></g><text
       xml:space="preserve"
       style="font-weight:600;font-size:9.43985px;line-height:10.3823px;font-family:Poppins;-inkscape-font-specification:'Poppins Semi-Bold';text-align:center;letter-spacing:-0.0176997px;writing-mode:lr-tb;direction:ltr;text-anchor:middle;fill:#f9f9f9;fill-opacity:1;stroke:none;stroke-width:3.99999;stroke-linecap:round;stroke-linejoin:round;stroke-miterlimit:100;stroke-dasharray:none;stroke-dashoffset:349.228;stroke-opacity:1;paint-order:markers fill stroke"
       x="414.35013"
       y="427.52844"
       id="text38"><tspan
         sodipodi:role="line"
         style="font-style:normal;font-variant:normal;font-weight:800;font-stretch:normal;font-family:Poppins;-inkscape-font-specification:'Poppins Ultra-Bold';fill:#f9f9f9;fill-opacity:1;stroke-width:3.99999"
         x="414.34128"
         y="427.52844"
         id="tspan40">WhatsApp  <tspan
   style="font-style:normal;font-variant:normal;font-weight:300;font-stretch:normal;font-family:Poppins;-inkscape-font-specification:'Poppins Light';stroke-width:3.99999"
   id="tspan41">vs. </tspan> Session</tspan></text><g
       id="g43"
       transform="matrix(0.51542632,0,0,0.51542632,380.07664,505.86612)"
       style="stroke-width:1.94014"><rect
         style="fill:#003399;fill-opacity:1;stroke:none;stroke-width:19.4014;stroke-linecap:round;stroke-linejoin:round;stroke-miterlimit:100;stroke-dashoffset:349.228"
         id="rect43"
         width="77.948296"
         height="19.829802"
         x="-150.67899"
         y="-4.6206355"
         ry="6.3088017" /><path
         style="fill:#fbfbfb;fill-opacity:1;stroke-width:0.440769"
         d="m -143.91422,10.0375 c -0.27639,-0.060891 -0.46864,-0.2993249 -0.46846,-0.5810811 1.2e-4,-0.091559 0,-0.085977 0.13959,-0.6150813 0.26829,-1.0085558 0.51674,-2.1041211 0.62857,-2.7717171 0.021,-0.1297199 0.12567,-0.9271347 0.24282,-1.8627573 0.1488,-1.1890038 0.21031,-1.6557888 0.2249,-1.7085632 0.0587,-0.2120435 0.15621,-0.378601 0.3107,-0.5321086 0.0944,-0.093989 0.19132,-0.1635407 0.3039,-0.2184603 0.0476,-0.023553 0.88641,-0.3621696 1.86296,-0.7526768 1.28329,-0.5131303 1.79966,-0.71581448 1.86197,-0.73092909 0.22186,-0.0537202 0.44027,-0.0451893 0.65231,0.0256547 0.17043,0.0570584 0.29945,0.1352217 0.44713,0.27111103 0.1747,0.16085781 2.84093,2.83642246 2.89409,2.90436096 0.2296,0.293001 0.30718,0.693974 0.2032,1.0508212 -0.0254,0.085872 -1.42547,3.5917514 -1.47134,3.6833231 -0.06,0.1185122 -0.12178,0.2035434 -0.22378,0.3048021 -0.16698,0.16576 -0.3413,0.2639957 -0.5607,0.3160716 -0.0377,0.00915 -0.77761,0.1047637 -1.64455,0.2129646 -0.86682,0.108207 -1.61458,0.202678 -1.66156,0.2099355 -0.77038,0.1188954 -1.7426,0.3350931 -3.04122,0.676331 -0.52472,0.137892 -0.49004,0.130035 -0.57238,0.129609 -0.0427,-1.43e-4 -0.10045,-0.0049 -0.12815,-0.01168 z m 2.17558,-1.695569 c 0.44342,-0.098458 0.83263,-0.1749895 1.17164,-0.2304901 0.15078,-0.024666 0.91541,-0.1243478 1.8425,-0.2401709 0.87164,-0.1088809 1.58571,-0.1987587 1.5867,-0.1997169 0,-6.182e-4 0.31515,-0.7838024 0.6978,-1.7396333 l 0.69571,-1.7378653 -1.39129,-1.3919477 -1.39135,-1.3919477 -1.73678,0.6945427 c -0.95535,0.3820072 -1.73834,0.695841 -1.74007,0.6974359 0,0.00185 -0.0914,0.7036857 -0.19801,1.5602175 -0.10719,0.8565382 -0.20295,1.6111623 -0.21265,1.6769433 -0.0253,0.1725662 -0.0822,0.4967422 -0.11671,0.6748721 -0.0334,0.1716019 -0.16376,0.7826464 -0.17149,0.805476 0,0.0081 0.43038,-0.4201924 0.96245,-0.9516581 l 0.96734,-0.9662905 -0.0155,-0.063135 c -0.0235,-0.096931 -0.0272,-0.3257771 -0.01,-0.4321852 0.0457,-0.2543273 0.15146,-0.4583653 0.33283,-0.639172 0.10386,-0.1034286 0.18218,-0.1610619 0.30013,-0.2205498 0.15807,-0.079783 0.30056,-0.1157056 0.48633,-0.1226169 0.34742,-0.012858 0.64532,0.1068408 0.89179,0.3586337 0.23503,0.2400225 0.35991,0.5924743 0.32609,0.9205263 -0.055,0.5346741 -0.4344,0.9507556 -0.96263,1.05602 -0.13075,0.025964 -0.41511,0.015949 -0.49869,-0.01768 -0.01,-0.00309 -0.30526,0.2872828 -0.97816,0.9602447 -0.53096,0.5309649 -0.9627,0.9654003 -0.95967,0.9654003 0,0 0.0569,-0.011375 0.11956,-0.025284 z m 7.42563,-5.3739591 c -0.071,-0.012796 -0.16598,-0.050568 -0.22545,-0.089631 -0.0396,-0.026087 -0.42185,-0.4032418 -1.35512,-1.3380111 -1.41527,-1.41737363 -1.344,-1.34117001 -1.38863,-1.48525029 -0.0161,-0.05254569 -0.0192,-0.08322619 -0.0192,-0.17085386 0,-0.0948048 0,-0.11528524 0.0241,-0.18243245 0.0791,-0.24247673 0.3057,-0.40672219 0.56039,-0.40672219 0.0924,0 0.17235,0.019411 0.26483,0.0644519 l 0.0812,0.039502 1.32075,1.32112229 1.32075,1.3211099 0.0346,0.07268 c 0.0476,0.099874 0.0639,0.1665637 0.0639,0.2690958 4.3e-4,0.1024146 -0.0155,0.1694567 -0.0619,0.2648302 -0.0741,0.1516531 -0.21451,0.2660852 -0.37586,0.3075407 -0.067,0.017247 -0.18564,0.023367 -0.24492,0.012673 z"
         id="path43" /><text
         xml:space="preserve"
         style="font-weight:500;font-size:7.76409px;line-height:6.98913px;font-family:'Visby CF';-inkscape-font-specification:'Visby CF Medium';letter-spacing:0.0517606px;fill:#fbfbfb;fill-opacity:1;stroke-width:5.88175;stroke-miterlimit:100;stroke-dashoffset:349.228;paint-order:stroke fill markers"
         x="-103.96552"
         y="8.2736673"
         id="text43"><tspan
           sodipodi:role="line"
           id="tspan43"
           x="-103.93964"
           y="8.2736673"
           style="font-style:normal;font-variant:normal;font-weight:800;font-stretch:normal;font-family:Poppins;-inkscape-font-specification:'Poppins Ultra-Bold';text-align:center;text-anchor:middle;fill:#fbfbfb;fill-opacity:1;stroke-width:5.88175">LEKTURSAM</tspan></text></g></g></svg>
