<?xml version="1.0" encoding="UTF-8" standalone="no"?>
<!-- Created with Inkscape (http://www.inkscape.org/) -->

<svg
   width="1280"
   height="720"
   viewBox="0 0 338.66667 190.5"
   version="1.1"
   id="svg1"
   inkscape:version="1.4 (e7c3feb100, 2024-10-09)"
   sodipodi:docname="inkscape-drawing.svg"
   xml:space="preserve"
   xmlns:inkscape="http://www.inkscape.org/namespaces/inkscape"
   xmlns:sodipodi="http://sodipodi.sourceforge.net/DTD/sodipodi-0.dtd"
   xmlns:xlink="http://www.w3.org/1999/xlink"
   xmlns="http://www.w3.org/2000/svg"
   xmlns:svg="http://www.w3.org/2000/svg"><sodipodi:namedview
     id="namedview1"
     pagecolor="#ffffff"
     bordercolor="#000000"
     borderopacity="0.25"
     inkscape:showpageshadow="2"
     inkscape:pageopacity="0.0"
     inkscape:pagecheckerboard="0"
     inkscape:deskcolor="#d1d1d1"
     inkscape:document-units="mm"
     inkscape:zoom="0.21906074"
     inkscape:cx="5238.2733"
     inkscape:cy="394.86766"
     inkscape:window-width="1342"
     inkscape:window-height="724"
     inkscape:window-x="12"
     inkscape:window-y="32"
     inkscape:window-maximized="1"
     inkscape:current-layer="layer1" /><defs
     id="defs1"><filter
       inkscape:collect="always"
       style="color-interpolation-filters:sRGB"
       id="filter11"
       x="-0.045971077"
       y="-0.065441327"
       width="1.0919422"
       height="1.1308827"><feGaussianBlur
         inkscape:collect="always"
         stdDeviation="2.5436351"
         id="feGaussianBlur11" /></filter><filter
       style="color-interpolation-filters:sRGB;"
       inkscape:label="Cross Blur"
       id="filter27"
       x="-0.014123835"
       y="-0.022938674"
       width="1.0282477"
       height="1.0458773"><feColorMatrix
         in="SourceGraphic"
         values="1 0 0 0 0 0 1 0 0 0 0 0 1 0 0 -0.2125 -0.7154 -0.0721 1 0 "
         result="colormatrix"
         id="feColorMatrix26" /><feComposite
         in="SourceGraphic"
         in2="colormatrix"
         operator="arithmetic"
         k2="1"
         k3="0"
         k4="0.167863"
         result="composite"
         id="feComposite26" /><feGaussianBlur
         stdDeviation="3.97606 0.01"
         result="blur1"
         id="feGaussianBlur26" /><feGaussianBlur
         in="composite"
         stdDeviation="0.01 4.28901"
         result="blur2"
         id="feGaussianBlur27" /><feBlend
         in="blur2"
         in2="blur1"
         mode="multiply"
         result="blend"
         id="feBlend27" /></filter></defs><g
     inkscape:label="Layer 1"
     inkscape:groupmode="layer"
     id="layer1"><image
       width="677.33331"
       height="449.79166"
       preserveAspectRatio="none"
       xlink:href="pexels-luis-gomes-166706-546819.jpg"
       id="image1"
       x="916.05267"
       y="-144.10754"
       style="filter:url(#filter27)" /><rect
       style="opacity:0.467541;mix-blend-mode:saturation;fill:#000000;fill-opacity:1;stroke:none;stroke-width:10;stroke-linecap:round;stroke-linejoin:round;stroke-miterlimit:100;stroke-dashoffset:349.228;stroke-opacity:1"
       id="rect11"
       width="677.33337"
       height="449.79163"
       x="916.05273"
       y="-144.10754"
       inkscape:export-filename="featured-image.png"
       inkscape:export-xdpi="48"
       inkscape:export-ydpi="48" /><rect
       style="fill:#dddddd;fill-opacity:1;stroke:none;stroke-width:10;stroke-linecap:round;stroke-linejoin:round;stroke-miterlimit:100;stroke-dashoffset:349.228"
       id="rect1"
       width="338.66666"
       height="190.5"
       x="0"
       y="0"
       ry="15.716328" /><rect
       style="fill:#000000;fill-opacity:1;stroke:none;stroke-width:10;stroke-linecap:round;stroke-linejoin:round;stroke-miterlimit:100;stroke-dashoffset:349.228"
       id="rect2"
       width="64.734917"
       height="19.53648"
       x="273.93176"
       y="170.96352"
       ry="6.2154822" /><path
       style="fill:#fbfbfb;fill-opacity:1;stroke-width:0.227183"
       d="m 280.46073,185.40484 c -0.27231,-0.06 -0.46171,-0.2949 -0.46149,-0.57249 6e-5,-0.0902 -0.002,-0.0847 0.13747,-0.60598 0.26429,-0.99364 0.50909,-2.073 0.61933,-2.73072 0.0214,-0.1278 0.12382,-0.91342 0.2392,-1.8352 0.14661,-1.17142 0.20716,-1.6313 0.22162,-1.68329 0.0581,-0.20891 0.15386,-0.373 0.30606,-0.52424 0.0931,-0.0926 0.18849,-0.16112 0.29935,-0.21523 0.0473,-0.0232 0.8733,-0.35681 1.83546,-0.74154 1.26425,-0.50554 1.77294,-0.70523 1.83442,-0.72012 0.21858,-0.0529 0.43381,-0.0445 0.64262,0.0253 0.16796,0.0562 0.29506,0.13322 0.44051,0.2671 0.17217,0.15848 2.79891,2.79447 2.85135,2.8614 0.22618,0.28867 0.30257,0.68371 0.2002,1.03528 -0.0246,0.0846 -1.40442,3.53862 -1.44962,3.62884 -0.0585,0.11676 -0.12003,0.20053 -0.22052,0.30029 -0.16452,0.16331 -0.3362,0.26009 -0.55239,0.3114 -0.037,0.009 -0.7661,0.10321 -1.62017,0.20981 -0.85405,0.10661 -1.59071,0.19968 -1.63699,0.20683 -0.75905,0.11714 -1.71683,0.33014 -2.99626,0.66633 -0.51697,0.13585 -0.48281,0.12811 -0.5639,0.12769 -0.0417,-1.4e-4 -0.0985,-0.005 -0.12625,-0.0115 z m 2.14338,-1.67049 c 0.43686,-0.097 0.82032,-0.1724 1.15432,-0.22708 0.14863,-0.0243 0.90184,-0.12251 1.81529,-0.23662 0.85869,-0.10727 1.56215,-0.19582 1.56324,-0.19676 7.7e-4,-7.8e-4 0.31043,-0.77221 0.68741,-1.7139 l 0.68544,-1.71216 -1.37073,-1.37136 -1.37073,-1.37136 -1.71117,0.68427 c -0.94114,0.37636 -1.71256,0.68555 -1.71426,0.68712 -0.002,0.002 -0.0895,0.69328 -0.19508,1.53714 -0.10559,0.84387 -0.19989,1.58733 -0.20956,1.65214 -0.0253,0.17001 -0.0806,0.48939 -0.11496,0.66489 -0.0332,0.16906 -0.16127,0.77107 -0.16892,0.79356 -0.003,0.008 0.42397,-0.41398 0.94817,-0.93758 l 0.95309,-0.952 -0.0147,-0.0622 c -0.0226,-0.0955 -0.027,-0.32096 -0.008,-0.42579 0.0445,-0.25057 0.14912,-0.45159 0.32786,-0.62972 0.10225,-0.1019 0.17951,-0.15868 0.29566,-0.21729 0.15569,-0.0786 0.29618,-0.11399 0.47916,-0.1208 0.34232,-0.0127 0.63573,0.10526 0.87861,0.35333 0.23153,0.23647 0.35453,0.58371 0.32124,0.90691 -0.0542,0.52676 -0.42794,0.93669 -0.94841,1.0404 -0.12878,0.0256 -0.40898,0.0157 -0.4913,-0.0174 -0.009,-0.003 -0.30072,0.28303 -0.96367,0.94604 -0.52308,0.52311 -0.94853,0.95112 -0.94546,0.95112 0.003,0 0.0561,-0.0112 0.11781,-0.0249 z m 7.31576,-5.29447 c -0.0697,-0.0126 -0.16341,-0.0498 -0.22209,-0.0883 -0.0393,-0.0257 -0.41554,-0.39728 -1.33509,-1.31822 -1.39431,-1.39641 -1.3241,-1.32133 -1.36808,-1.46328 -0.016,-0.0518 -0.0195,-0.082 -0.0195,-0.16833 0,-0.0934 0.003,-0.11358 0.0244,-0.17973 0.0783,-0.23889 0.30125,-0.40071 0.55211,-0.40071 0.0911,0 0.1698,0.0191 0.26091,0.0635 l 0.0799,0.0389 1.30119,1.30158 1.30119,1.30157 0.0344,0.0716 c 0.0473,0.0984 0.0631,0.1641 0.0635,0.26512 4.2e-4,0.1009 -0.0151,0.16695 -0.0613,0.26091 -0.0735,0.14941 -0.2113,0.26215 -0.37031,0.30299 -0.0659,0.017 -0.18287,0.023 -0.24129,0.0125 z"
       id="path5" /><text
       xml:space="preserve"
       style="font-weight:500;font-size:6.14003px;line-height:5.52715px;font-family:'Visby CF';-inkscape-font-specification:'Visby CF Medium';letter-spacing:0.0409335px;fill:#fbfbfb;fill-opacity:1;stroke-width:3.0316;stroke-miterlimit:100;stroke-dashoffset:349.228;paint-order:stroke fill markers"
       x="312.40601"
       y="183.13208"
       id="text15"><tspan
         sodipodi:role="line"
         id="tspan15"
         x="312.42648"
         y="183.13208"
         style="font-style:normal;font-variant:normal;font-weight:800;font-stretch:normal;font-family:Poppins;-inkscape-font-specification:'Poppins Ultra-Bold';text-align:center;text-anchor:middle;fill:#fbfbfb;fill-opacity:1;stroke-width:3.0316">LEKTURSAM</tspan></text><rect
       style="fill:#000000;stroke-width:10;stroke-linecap:round;stroke-linejoin:round;stroke-miterlimit:100;stroke-dashoffset:349.228"
       id="rect3"
       width="524.1217"
       height="94.513756"
       x="-158.4776"
       y="261.58353" /><path
       style="fill:#000000;stroke-width:10;stroke-linecap:round;stroke-linejoin:round;stroke-miterlimit:100;stroke-dashoffset:349.228"
       id="path3"
       d="m -73.139117,161.63579 c 0.657014,-0.44465 1.231001,-1.04807 1.97104,-1.33394 13.243669,-5.11581 29.733978,-6.08059 43.645098,-6.83027 16.115042,-0.86846 24.9605854,-0.56692 40.883038,-0.44341 -21.0314121,0.18566 -42.066689,0.11307 -63.094237,0.55699 -3.746183,0.0791 7.486777,0.33286 11.228178,0.53795 3.187549,0.17474 6.365819,0.58178 9.558091,0.60151 31.7264028,0.19613 63.467736,0.97922 95.181014,0.046 3.762087,-0.11071 18.645285,-6.38272 21.641798,-7.57131 15.176017,-5.82905 29.832267,-12.82757 44.504777,-19.78797 0,0 -94.875221,-9.66896 -94.875221,-9.66896 v 0 c -9.595797,8.46598 -20.925466,14.57318 -32.9003834,19.02295 -3.89795394,1.08573 -7.7213609,2.48772 -11.6938619,3.25719 -3.9714037,0.76927 -16.1047927,1.23676 -12.0609967,1.34415 141.270503,3.75169 79.94882,-0.2422 49.166074,-0.29015 -30.6530488,-0.0478 -61.306114,0.0831 -91.959172,0.12465 -27.247297,1.04242 -54.472389,2.48846 -81.574409,5.60204 -7.11358,0.81724 -14.26095,1.46539 -21.30242,2.7648 -2.04963,0.37823 -3.89094,1.49554 -5.83641,2.24331 z" /><path
       style="fill:#000000;stroke-width:10;stroke-linecap:round;stroke-linejoin:round;stroke-miterlimit:100;stroke-dashoffset:349.228"
       d="M -172.79787,60.145114 -24.821793,48.688902 -23.867109,-9.5468436 121.24491,-40.096744"
       id="path4" /><text
       xml:space="preserve"
       style="font-weight:800;font-size:5.64444px;line-height:6.208px;font-family:Poppins;-inkscape-font-specification:'Poppins Ultra-Bold';text-align:center;letter-spacing:-0.0661458px;writing-mode:lr-tb;direction:ltr;text-anchor:middle;fill:#000000;stroke-width:10;stroke-linecap:round;stroke-linejoin:round;stroke-miterlimit:100;stroke-dashoffset:349.228"
       x="362.78006"
       y="-25.776478"
       id="text4"><tspan
         sodipodi:role="line"
         id="tspan4"
         style="stroke-width:10"
         x="362.78006"
         y="-25.776478">Bagan node:</tspan><tspan
         sodipodi:role="line"
         style="stroke-width:10"
         x="362.74698"
         y="-19.568478"
         id="tspan5">inode -&gt; file data</tspan></text><rect
       style="fill:#dddddd;fill-opacity:1;stroke:none;stroke-width:10;stroke-linecap:round;stroke-linejoin:round;stroke-miterlimit:100;stroke-dashoffset:349.228"
       id="rect5"
       width="338.66666"
       height="190.5"
       x="459.63232"
       y="40.524426"
       ry="15.716328" /><rect
       style="fill:#003399;fill-opacity:1;stroke:none;stroke-width:10;stroke-linecap:round;stroke-linejoin:round;stroke-miterlimit:100;stroke-dashoffset:349.228"
       id="rect6"
       width="126.09226"
       height="32.077477"
       x="1461.441"
       y="266.58325"
       ry="10.205369" /><path
       style="fill:#fbfbfb;fill-opacity:1;stroke-width:0.227184"
       d="m 1472.384,290.29483 c -0.4471,-0.0985 -0.7581,-0.4842 -0.7578,-0.93998 2e-4,-0.14811 0,-0.13908 0.2258,-0.99498 0.434,-1.63148 0.8359,-3.40371 1.0168,-4.48364 0.034,-0.20984 0.2033,-1.49977 0.3928,-3.01327 0.2407,-1.92338 0.3402,-2.67847 0.3638,-2.76384 0.095,-0.34301 0.2527,-0.61244 0.5026,-0.86076 0.1527,-0.15204 0.3095,-0.26455 0.4916,-0.35339 0.077,-0.0381 1.4339,-0.58586 3.0136,-1.21756 2.0759,-0.83006 2.9112,-1.15793 3.012,-1.18238 0.3589,-0.0869 0.7122,-0.0731 1.0552,0.0415 0.2757,0.0923 0.4844,0.21874 0.7233,0.43856 0.2826,0.26021 4.5956,4.58831 4.6816,4.69821 0.3714,0.47397 0.4969,1.1226 0.3287,1.69985 -0.041,0.13891 -2.3059,5.81016 -2.3801,5.95829 -0.097,0.19171 -0.197,0.32926 -0.362,0.49306 -0.2701,0.26814 -0.5521,0.42705 -0.907,0.51129 -0.061,0.0148 -1.2579,0.16947 -2.6603,0.3445 -1.4022,0.17504 -2.6118,0.32786 -2.6878,0.3396 -1.2462,0.19233 -2.8189,0.54206 -4.9196,1.09406 -0.8488,0.22306 -0.7927,0.21035 -0.9259,0.20966 -0.069,-2.3e-4 -0.1625,-0.008 -0.2073,-0.0189 z m 3.5193,-2.74282 c 0.7173,-0.15927 1.3469,-0.28307 1.8953,-0.37285 0.2439,-0.0399 1.4808,-0.20115 2.9805,-0.38851 1.41,-0.17613 2.5651,-0.32152 2.5667,-0.32307 0,-10e-4 0.5098,-1.26791 1.1288,-2.8141 l 1.1254,-2.81124 -2.2506,-2.25167 -2.2507,-2.25167 -2.8095,1.12352 c -1.5454,0.61795 -2.812,1.12562 -2.8148,1.1282 0,0.003 -0.1478,1.13831 -0.3203,2.52387 -0.1734,1.38557 -0.3283,2.60628 -0.344,2.71269 -0.041,0.27915 -0.133,0.80355 -0.1888,1.0917 -0.054,0.27759 -0.2649,1.26604 -0.2774,1.30297 0,0.0131 0.6962,-0.67972 1.5569,-1.53944 l 1.5648,-1.56311 -0.025,-0.10213 c -0.038,-0.1568 -0.044,-0.52699 -0.016,-0.69912 0.074,-0.41141 0.245,-0.74147 0.5384,-1.03395 0.168,-0.16731 0.2947,-0.26054 0.4855,-0.35677 0.2557,-0.12906 0.4862,-0.18717 0.7867,-0.19835 0.562,-0.0208 1.0439,0.17283 1.4426,0.58014 0.3802,0.38827 0.5822,0.95841 0.5275,1.48908 -0.089,0.86491 -0.7027,1.53798 -1.5572,1.70826 -0.2115,0.042 -0.6715,0.0258 -0.8067,-0.0286 -0.016,-0.005 -0.4938,0.46472 -1.5823,1.55333 -0.8589,0.85891 -1.5573,1.56167 -1.5524,1.56167 0,0 0.092,-0.0184 0.1934,-0.0409 z m 12.012,-8.69313 c -0.1149,-0.0207 -0.2685,-0.0818 -0.3647,-0.14499 -0.064,-0.0422 -0.6824,-0.6523 -2.1921,-2.16442 -2.2894,-2.2928 -2.1741,-2.16953 -2.2463,-2.4026 -0.026,-0.085 -0.031,-0.13463 -0.031,-0.27638 0,-0.15336 0,-0.18649 0.039,-0.29511 0.128,-0.39224 0.4945,-0.65793 0.9065,-0.65793 0.1494,0 0.2788,0.0314 0.4284,0.10426 l 0.1313,0.0639 2.1365,2.1371 2.1365,2.13708 0.056,0.11757 c 0.077,0.16156 0.1034,0.26944 0.1034,0.4353 7e-4,0.16567 -0.025,0.27412 -0.1001,0.4284 -0.1199,0.24532 -0.347,0.43043 -0.608,0.49749 -0.1084,0.0279 -0.3003,0.0378 -0.3962,0.0205 z"
       id="path6" /><text
       xml:space="preserve"
       style="font-weight:500;font-size:12.5595px;line-height:11.3059px;font-family:'Visby CF';-inkscape-font-specification:'Visby CF Medium';letter-spacing:0.08373px;fill:#fbfbfb;fill-opacity:1;stroke-width:3.03161;stroke-miterlimit:100;stroke-dashoffset:349.228;paint-order:stroke fill markers"
       x="1537.0066"
       y="287.44159"
       id="text6"><tspan
         sodipodi:role="line"
         id="tspan6"
         x="1537.0485"
         y="287.44159"
         style="font-style:normal;font-variant:normal;font-weight:800;font-stretch:normal;font-family:Poppins;-inkscape-font-specification:'Poppins Ultra-Bold';text-align:center;text-anchor:middle;fill:#fbfbfb;fill-opacity:1;stroke-width:3.03161">LEKTURSAM</tspan></text><g
       id="g11"
       style="fill:#000000;fill-opacity:1;filter:url(#filter11);stroke:#000000;stroke-opacity:1;opacity:0.46754125"><text
         xml:space="preserve"
         style="font-weight:800;font-size:84.5128px;line-height:92.9507px;font-family:Poppins;-inkscape-font-specification:'Poppins Ultra-Bold';text-align:center;letter-spacing:-0.0792306px;writing-mode:lr-tb;direction:ltr;text-anchor:middle;fill:#000000;stroke-width:9.99999;stroke-linecap:round;stroke-linejoin:round;stroke-miterlimit:100;stroke-dashoffset:349.228;fill-opacity:1;stroke:#000000;stroke-opacity:1"
         x="1255.7227"
         y="115.27036"
         id="text9"><tspan
           sodipodi:role="line"
           id="tspan9"
           style="font-size:84.5128px;line-height:92.9507px;stroke-width:9.99999;fill:#000000;fill-opacity:1;stroke:#000000;stroke-opacity:1"
           x="1255.683"
           y="115.27036">inode</tspan></text><text
         xml:space="preserve"
         style="font-weight:800;font-size:35.2778px;line-height:38.7999px;font-family:Poppins;-inkscape-font-specification:'Poppins Ultra-Bold';text-align:center;letter-spacing:-0.0661458px;writing-mode:lr-tb;direction:ltr;text-anchor:middle;fill:#000000;stroke-width:10;stroke-linecap:round;stroke-linejoin:round;stroke-miterlimit:100;stroke-dashoffset:349.228;fill-opacity:1;stroke:#000000;stroke-opacity:1"
         x="1255.4249"
         y="28.961222"
         id="text10"><tspan
           sodipodi:role="line"
           id="tspan10"
           style="font-style:normal;font-variant:normal;font-weight:600;font-stretch:normal;font-size:35.2778px;line-height:38.7999px;font-family:Poppins;-inkscape-font-specification:'Poppins Semi-Bold';stroke-width:10;fill:#000000;fill-opacity:1;stroke:#000000;stroke-opacity:1"
           x="1255.3918"
           y="28.961222">APA ITU</tspan></text><text
         xml:space="preserve"
         style="font-weight:800;font-size:35.2778px;line-height:38.7999px;font-family:Poppins;-inkscape-font-specification:'Poppins Ultra-Bold';text-align:center;letter-spacing:-0.0661458px;writing-mode:lr-tb;direction:ltr;text-anchor:middle;fill:#000000;stroke-width:10;stroke-linecap:round;stroke-linejoin:round;stroke-miterlimit:100;stroke-dashoffset:349.228;fill-opacity:1;stroke:#000000;stroke-opacity:1"
         x="1256.5405"
         y="173.74487"
         id="text11"><tspan
           sodipodi:role="line"
           id="tspan11"
           style="font-style:normal;font-variant:normal;font-weight:600;font-stretch:normal;font-size:35.2778px;line-height:38.7999px;font-family:Poppins;-inkscape-font-specification:'Poppins Semi-Bold';stroke-width:10;fill:#000000;fill-opacity:1;stroke:#000000;stroke-opacity:1"
           x="1256.5074"
           y="173.74487">???</tspan></text></g><g
       id="g9"
       style="fill:#ffffff;fill-opacity:1"><text
         xml:space="preserve"
         style="font-weight:800;font-size:84.5128px;line-height:92.9507px;font-family:Poppins;-inkscape-font-specification:'Poppins Ultra-Bold';text-align:center;letter-spacing:-0.0792306px;writing-mode:lr-tb;direction:ltr;text-anchor:middle;fill:#ffffff;stroke-width:9.99999;stroke-linecap:round;stroke-linejoin:round;stroke-miterlimit:100;stroke-dashoffset:349.228;fill-opacity:1"
         x="1255.7227"
         y="115.27036"
         id="text1"><tspan
           sodipodi:role="line"
           id="tspan1"
           style="font-size:84.5128px;line-height:92.9507px;stroke-width:9.99999;fill:#ffffff;fill-opacity:1"
           x="1255.683"
           y="115.27036">inode</tspan></text><text
         xml:space="preserve"
         style="font-weight:800;font-size:35.2778px;line-height:38.7999px;font-family:Poppins;-inkscape-font-specification:'Poppins Ultra-Bold';text-align:center;letter-spacing:-0.0661458px;writing-mode:lr-tb;direction:ltr;text-anchor:middle;fill:#ffffff;stroke-width:10;stroke-linecap:round;stroke-linejoin:round;stroke-miterlimit:100;stroke-dashoffset:349.228;fill-opacity:1"
         x="1255.4249"
         y="28.961222"
         id="text2"><tspan
           sodipodi:role="line"
           id="tspan2"
           style="font-style:normal;font-variant:normal;font-weight:600;font-stretch:normal;font-size:35.2778px;line-height:38.7999px;font-family:Poppins;-inkscape-font-specification:'Poppins Semi-Bold';stroke-width:10;fill:#ffffff;fill-opacity:1"
           x="1255.3918"
           y="28.961222">APA ITU</tspan></text><text
         xml:space="preserve"
         style="font-weight:800;font-size:35.2778px;line-height:38.7999px;font-family:Poppins;-inkscape-font-specification:'Poppins Ultra-Bold';text-align:center;letter-spacing:-0.0661458px;writing-mode:lr-tb;direction:ltr;text-anchor:middle;fill:#ffffff;stroke-width:10;stroke-linecap:round;stroke-linejoin:round;stroke-miterlimit:100;stroke-dashoffset:349.228;fill-opacity:1"
         x="1256.5405"
         y="173.74487"
         id="text3"><tspan
           sodipodi:role="line"
           id="tspan3"
           style="font-style:normal;font-variant:normal;font-weight:600;font-stretch:normal;font-size:35.2778px;line-height:38.7999px;font-family:Poppins;-inkscape-font-specification:'Poppins Semi-Bold';stroke-width:10;fill:#ffffff;fill-opacity:1"
           x="1256.5074"
           y="173.74487">???</tspan></text></g></g></svg>
